<svg version="1.1" id="Layer_1" xmlns="http://www.w3.org/2000/svg" xmlns:xlink="http://www.w3.org/1999/xlink" x="0px" y="0px"
	 width="100%" viewBox="0 0 1353 615" enable-background="new 0 0 1353 615" xml:space="preserve">
<path fill="#5AA8BC" opacity="1.000000" stroke="none" 
	d="
M969.001831,1.475702 
	C1095.816772,1.000000 1222.633667,1.017795 1349.450317,0.910804 
	C1353.110962,0.907716 1354.104004,1.582889 1354.101807,5.449308 
	C1353.986450,207.422913 1353.981201,409.396606 1354.125977,611.370239 
	C1354.129028,615.680176 1352.935791,616.094055 1349.130981,616.093201 
	C901.355957,615.994446 453.580994,615.993652 5.806025,616.102417 
	C1.870620,616.103394 0.878757,615.481934 0.881560,611.307190 
	C1.017066,409.500214 1.021054,207.693161 0.865365,5.886236 
	C0.861864,1.349252 2.182380,0.908469 6.112640,0.911792 
	C132.762589,1.018879 259.412659,1.000000 386.531342,1.000000 
	C386.923035,3.672285 384.623993,4.455547 382.902100,5.586385 
	C366.956573,16.058558 359.501740,30.817364 359.513885,49.860504 
	C359.600403,185.512421 359.555542,321.164429 359.563416,456.816406 
	C359.565247,488.046997 380.005066,508.436493 411.301331,508.437439 
	C589.115417,508.442749 766.929504,508.442749 944.743591,508.437347 
	C976.025574,508.436401 996.434814,488.040283 996.436584,456.771545 
	C996.444092,321.119568 996.400635,185.467545 996.484619,49.815624 
	C996.496399,30.769302 989.019836,16.007660 973.046936,5.582143 
	C971.519836,4.585371 969.892700,3.671503 969.001831,1.475702 
z"/>
<path fill="#FFFFFF" opacity="1.000000" stroke="none" 
	d="
M968.531372,1.000000 
	C977.191772,6.143915 984.990234,11.663057 990.198181,20.172350 
	C995.192200,28.331890 997.982605,37.084156 997.984131,46.639156 
	C998.005493,184.619995 998.036255,322.600861 997.965881,460.581635 
	C997.952087,487.652710 975.635437,509.957947 948.555176,509.967041 
	C768.246887,510.027466 587.938599,510.023926 407.630280,509.971924 
	C380.272797,509.964020 358.036774,487.663818 358.025970,460.267212 
	C357.971649,322.453003 357.915039,184.638702 358.093506,46.824726 
	C358.120331,26.115150 368.520233,11.211760 386.858582,1.312275 
	C580.687561,1.000000 774.375122,1.000000 968.531372,1.000000 
z"/>
<path fill="#DFDFDF" opacity="1.000000" stroke="none" 
	d="
M432.000122,407.000000 
	C458.310638,407.000061 484.121521,407.065765 509.931274,406.927612 
	C513.701294,406.907440 515.181091,407.721283 515.099304,411.867645 
	C514.833496,425.350494 514.869446,438.843933 515.083130,452.328613 
	C515.143372,456.132019 513.906555,457.089844 510.235291,457.074646 
	C478.763672,456.944305 447.291016,456.947906 415.819336,457.071045 
	C412.220795,457.085114 410.851013,456.262054 410.914093,452.383118 
	C411.136017,438.732117 411.107971,425.073914 410.927521,411.421722 
	C410.880463,407.861969 412.077972,406.784271 415.517029,406.937805 
	C420.835052,407.175262 426.171509,407.000153 432.000122,407.000000 
z"/>
<path fill="#DFDFDF" opacity="1.000000" stroke="none" 
	d="
M443.000000,353.000000 
	C465.647095,353.000031 487.794678,353.077240 509.940735,352.925751 
	C513.728394,352.899872 515.178772,353.748413 515.098389,357.877228 
	C514.835754,371.360168 514.868286,384.853546 515.083679,398.338165 
	C515.144592,402.154663 513.884338,403.089081 510.225708,403.074097 
	C478.754059,402.944916 447.281433,402.947266 415.809753,403.071686 
	C412.198547,403.085968 410.852142,402.239136 410.914551,398.373596 
	C411.134857,384.722534 411.109009,371.064331 410.927032,357.412140 
	C410.879425,353.839630 412.105438,352.859711 415.525238,352.934235 
	C424.513031,353.129944 433.507935,353.000153 443.000000,353.000000 
z"/>
<path fill="#DFDFDF" opacity="1.000000" stroke="none" 
	d="
M459.000000,295.000000 
	C444.179321,294.999847 429.857727,294.911438 415.538696,295.064423 
	C412.142792,295.100708 410.878693,294.193359 410.926331,290.602051 
	C411.109680,276.783356 411.092194,262.959747 410.935547,249.140427 
	C410.897369,245.774002 412.123291,244.935913 415.295898,244.945068 
	C447.100861,245.036850 478.906281,245.037170 510.711243,244.944672 
	C513.892395,244.935425 515.102112,245.790009 515.064209,249.147522 
	C514.908386,262.966888 514.889404,276.790497 515.073975,290.609131 
	C515.122070,294.210236 513.839355,295.091003 510.454437,295.063324 
	C493.470581,294.924408 476.484985,294.999847 459.000000,295.000000 
z"/>
<path fill="#DFDFDF" opacity="1.000000" stroke="none" 
	d="
M430.000488,299.000000 
	C456.977020,299.000031 483.453979,299.063995 509.929871,298.927887 
	C513.697205,298.908508 515.181458,299.717133 515.099487,303.866211 
	C514.833191,317.349060 514.869690,330.842499 515.083130,344.327209 
	C515.143250,348.128754 513.909790,349.089935 510.236725,349.074707 
	C478.765076,348.944183 447.292450,348.947968 415.820740,349.070923 
	C412.224060,349.084961 410.850861,348.265442 410.914032,344.384521 
	C411.136200,330.733521 411.107788,317.075317 410.927612,303.423096 
	C410.880646,299.865326 412.073944,298.760010 415.516022,298.940002 
	C420.165863,299.183105 424.838013,299.000153 430.000488,299.000000 
z"/>
<path fill="#DFDFDF" opacity="1.000000" stroke="none" 
	d="
M515.000000,228.983582 
	C515.000000,241.000015 515.000000,241.000015 503.596985,241.000000 
	C474.455383,240.999969 445.313263,240.916412 416.172729,241.092758 
	C411.953186,241.118301 410.837830,239.835831 410.910370,235.736710 
	C411.149017,222.252533 411.081757,208.760666 410.941376,195.273743 
	C410.908020,192.070724 411.828003,190.928314 415.162720,190.939133 
	C447.134888,191.042831 479.107574,191.035690 511.079834,190.946884 
	C514.185242,190.938263 515.084900,192.032013 515.050415,195.016586 
	C514.921509,206.172180 514.999573,217.330170 515.000000,228.983582 
z"/>
<path fill="#DFDFDF" opacity="1.000000" stroke="none" 
	d="
M795.950806,353.000000 
	C806.334351,353.156250 804.919861,351.674591 804.981140,361.370972 
	C805.059082,373.692749 804.859009,386.017914 805.083801,398.336090 
	C805.153381,402.150970 803.889221,403.092651 800.227661,403.074677 
	C772.419983,402.937988 744.611084,402.940247 716.803406,403.072571 
	C713.183350,403.089783 711.851746,402.224182 711.914795,398.367279 
	C712.135254,384.882996 712.157166,371.390015 711.904968,357.906830 
	C711.828735,353.833160 713.189453,352.900848 717.029297,352.922607 
	C743.171631,353.070709 769.315186,353.000061 795.950806,353.000000 
z"/>
<path fill="#DFDFDF" opacity="1.000000" stroke="none" 
	d="
M712.000000,265.000305 
	C712.001404,259.172180 712.082275,253.842239 711.969543,248.516388 
	C711.915894,245.984924 712.784241,244.962494 715.420776,244.967941 
	C744.060059,245.026962 772.699524,245.032349 801.338745,244.958069 
	C804.205750,244.950638 805.059143,246.025635 805.041138,248.774979 
	C804.948669,262.927551 804.948242,277.081421 805.041504,291.234009 
	C805.059631,293.992584 804.187134,295.049164 801.329773,295.041840 
	C772.857056,294.969116 744.384033,294.959442 715.911438,295.053650 
	C712.796143,295.063934 711.898987,293.950317 711.950012,290.975037 
	C712.095581,282.485626 712.000427,273.992096 712.000000,265.000305 
z"/>
<path fill="#DFDFDF" opacity="1.000000" stroke="none" 
	d="
M805.000000,216.000000 
	C804.999573,223.326828 804.888428,230.156250 805.049683,236.979263 
	C805.120178,239.961929 804.193970,241.063858 801.083984,241.053574 
	C772.777954,240.959930 744.471252,240.952255 716.165344,241.061142 
	C712.834473,241.073944 711.908936,239.935867 711.941284,236.729645 
	C712.080627,222.910889 712.080627,209.089111 711.941223,195.270355 
	C711.908936,192.064117 712.834473,190.926071 716.165344,190.938889 
	C744.471252,191.047775 772.777954,191.040085 801.083984,190.946442 
	C804.193970,190.936142 805.120239,192.038071 805.049683,195.020721 
	C804.888489,201.843735 804.999573,208.673172 805.000000,216.000000 
z"/>
<path fill="#DFDFDF" opacity="1.000000" stroke="none" 
	d="
M673.000000,241.000000 
	C654.850159,240.999847 637.199768,240.927612 619.550964,241.062729 
	C616.174377,241.088577 614.877258,240.223816 614.925659,236.615067 
	C615.111145,222.797394 615.090820,208.974747 614.936157,195.156326 
	C614.898743,191.810486 616.087341,190.932724 619.279480,190.943863 
	C647.419006,191.042160 675.559082,191.040985 703.698608,190.945053 
	C706.864197,190.934265 708.102478,191.760956 708.064636,195.134415 
	C707.907959,209.119324 707.924194,223.107727 708.055908,237.093155 
	C708.085388,240.216599 706.938110,241.088409 703.970276,241.049683 
	C693.815063,240.917160 683.656982,240.999573 673.000000,241.000000 
z"/>
<path fill="#DFDFDF" opacity="1.000000" stroke="none" 
	d="
M708.000000,413.123260 
	C707.999817,426.595062 707.888306,439.585907 708.072205,452.572510 
	C708.122559,456.125092 706.924561,457.078461 703.490845,457.064331 
	C675.514465,456.949158 647.537231,456.953217 619.560852,457.060486 
	C616.199219,457.073364 614.876038,456.247162 614.925110,452.624207 
	C615.112366,438.804901 615.090454,424.980469 614.936279,411.160339 
	C614.899048,407.818512 616.079529,406.932465 619.276367,406.943665 
	C647.419434,407.042328 675.563721,407.110077 703.705444,406.897461 
	C708.618042,406.860321 708.076111,409.613159 708.000000,413.123260 
z"/>
<path fill="#DFDFDF" opacity="1.000000" stroke="none" 
	d="
M805.000000,312.010345 
	C804.999573,323.332031 804.920288,334.156128 805.050049,344.977692 
	C805.085754,347.954559 804.198669,349.063934 801.086121,349.053619 
	C772.779785,348.959839 744.472778,348.952301 716.166565,349.061066 
	C712.837219,349.073853 711.908875,347.938599 711.941223,344.730835 
	C712.080811,330.911926 712.080566,317.090027 711.941284,303.271118 
	C711.908997,300.065582 712.832947,298.925903 716.164673,298.938812 
	C744.304382,299.047760 772.444946,299.057434 800.584534,298.929749 
	C804.147095,298.913605 805.342224,300.090393 805.045227,303.523224 
	C804.816406,306.167572 804.999817,308.847626 805.000000,312.010345 
z"/>
<path fill="#DFDFDF" opacity="1.000000" stroke="none" 
	d="
M712.000000,428.000153 
	C712.001404,421.838928 712.079529,416.176147 711.969482,410.517059 
	C711.920288,407.986694 712.782532,406.962463 715.419983,406.967896 
	C744.059265,407.027008 772.698730,407.032318 801.337952,406.958069 
	C804.204041,406.950623 805.059082,408.023895 805.041138,410.774139 
	C804.948547,424.926727 804.948181,439.080566 805.041382,453.233154 
	C805.059509,455.990845 804.188904,457.049133 801.330627,457.041809 
	C772.857971,456.968994 744.384888,456.959503 715.912354,457.053619 
	C712.798157,457.063904 711.895752,455.952667 711.949951,452.975891 
	C712.098450,444.819702 712.000427,436.659027 712.000000,428.000153 
z"/>
<path fill="#DFDFDF" opacity="1.000000" stroke="none" 
	d="
M662.000000,353.000000 
	C676.153687,353.000153 689.808350,353.091980 703.460266,352.935608 
	C706.854309,352.896729 708.121399,353.803375 708.073608,357.396332 
	C707.890015,371.214050 707.908142,385.036713 708.064270,398.855103 
	C708.102234,402.215424 706.887329,403.066528 703.709106,403.055573 
	C675.569580,402.958496 647.429443,402.958435 619.289917,403.055573 
	C616.110596,403.066559 614.897888,402.213257 614.935730,398.854156 
	C615.091736,385.035767 615.110046,371.213104 614.926270,357.395386 
	C614.878479,353.801086 616.148071,352.898315 619.540710,352.935730 
	C633.525696,353.090027 647.513306,353.000122 662.000000,353.000000 
z"/>
<path fill="#DFDFDF" opacity="1.000000" stroke="none" 
	d="
M707.999146,249.208313 
	C707.999939,263.172668 707.892761,276.663666 708.071960,290.150879 
	C708.119385,293.716492 707.325806,295.106842 703.412231,295.084625 
	C675.434753,294.925507 647.455688,294.946899 619.477844,295.066437 
	C616.000610,295.081299 614.885376,294.048645 614.929871,290.540863 
	C615.103210,276.886932 615.087097,263.228577 614.938416,249.574066 
	C614.902039,246.227112 615.725830,244.909653 619.362793,244.926956 
	C647.507080,245.060867 675.652344,245.025055 703.797180,244.963028 
	C706.561157,244.956940 708.434631,245.422150 707.999146,249.208313 
z"/>
<path fill="#DFDFDF" opacity="1.000000" stroke="none" 
	d="
M702.837524,299.000122 
	C706.519104,298.609741 708.132629,299.476929 708.078125,303.252808 
	C707.878723,317.072174 707.920410,330.896912 708.058167,344.717773 
	C708.089966,347.910828 707.190918,349.074554 703.845459,349.061554 
	C675.535278,348.951660 647.224426,348.959839 618.914124,349.053680 
	C615.800842,349.063995 614.926086,347.952972 614.950378,344.977142 
	C615.064758,330.989349 615.130127,316.998138 614.920959,303.012512 
	C614.859985,298.937469 616.999939,298.963287 619.924316,298.968872 
	C647.402100,299.021454 674.880127,299.000031 702.837524,299.000122 
z"/>
<path fill="#DFDFDF" opacity="1.000000" stroke="none" 
	d="
M576.000000,191.000000 
	C586.656921,191.000443 596.814941,191.082825 606.970093,190.950348 
	C609.937622,190.911621 611.085266,191.782944 611.055908,194.906586 
	C610.924194,208.891922 610.946167,222.879562 611.042603,236.865463 
	C611.062195,239.705978 610.437622,241.067139 607.198730,241.055695 
	C579.059387,240.956207 550.919556,240.972290 522.780090,241.039490 
	C520.037537,241.046036 518.935669,240.218063 518.956238,237.343857 
	C519.057861,223.191513 519.108398,209.036697 518.929077,194.885880 
	C518.882385,191.192398 520.694641,190.951767 523.550049,190.963852 
	C540.866394,191.037109 558.183289,191.000137 576.000000,191.000000 
z"/>
<path fill="#DFDFDF" opacity="1.000000" stroke="none" 
	d="
M523.209106,402.999054 
	C519.947205,403.324158 518.937195,402.127167 518.956848,399.299835 
	C519.055481,385.144653 519.079468,370.987701 518.942505,356.833191 
	C518.911438,353.624451 520.229004,352.949493 523.104126,352.957031 
	C551.082581,353.030487 579.061340,353.038239 607.039673,352.948578 
	C610.093689,352.938812 611.078796,353.941986 611.052307,356.976929 
	C610.930542,370.965210 610.871033,384.956970 611.079224,398.943207 
	C611.139038,402.962769 609.091492,403.041290 606.119690,403.034882 
	C578.640808,402.975494 551.161743,402.999786 523.209106,402.999054 
z"/>
<path fill="#DFDFDF" opacity="1.000000" stroke="none" 
	d="
M611.000000,335.989197 
	C611.000000,349.000031 611.000000,349.000000 598.593445,349.000000 
	C573.783569,348.999939 548.972961,348.902374 524.164551,349.094055 
	C519.932983,349.126740 518.839172,347.816925 518.910950,343.729248 
	C519.147766,330.246155 519.082092,316.755493 518.941162,303.269714 
	C518.907654,300.062500 519.835999,298.925812 523.166016,298.938812 
	C551.139160,299.048218 579.112976,299.040588 607.086243,298.946320 
	C610.198853,298.935852 611.085754,300.045685 611.050110,303.022400 
	C610.920349,313.843933 610.999573,324.667999 611.000000,335.989197 
z"/>
<path fill="#DFDFDF" opacity="1.000000" stroke="none" 
	d="
M519.006958,291.737152 
	C519.001343,277.274872 519.077637,263.284821 518.942688,249.296783 
	C518.912048,246.121277 519.776550,244.924377 523.140320,244.937805 
	C551.118530,245.049545 579.097534,245.040207 607.075867,244.946716 
	C610.177124,244.936356 611.075012,246.024811 611.050232,249.013199 
	C610.934265,263.001556 610.934875,276.991974 611.049744,290.980347 
	C611.074219,293.960480 610.191895,295.064056 607.082397,295.053619 
	C579.104065,294.959503 551.125244,295.000916 523.146606,294.994537 
	C521.164490,294.994080 518.903198,295.344391 519.006958,291.737152 
z"/>
<path fill="#DFDFDF" opacity="1.000000" stroke="none" 
	d="
M607.735229,407.006592 
	C610.441895,406.890198 611.010498,408.168335 611.006775,410.140808 
	C610.979309,424.630066 610.949890,439.119690 611.033569,453.608551 
	C611.048950,456.276642 609.949036,457.032440 607.453552,457.028015 
	C579.141174,456.977509 550.828552,456.976318 522.516174,457.028992 
	C519.987732,457.033691 518.951660,456.216278 518.966614,453.578278 
	C519.047729,439.255951 519.103027,424.931763 518.939087,410.610840 
	C518.893555,406.631592 521.260559,406.988617 523.826355,406.990112 
	C551.639282,407.006592 579.452148,407.001068 607.735229,407.006592 
z"/>
<path fill="#767676" opacity="1.000000" stroke="none" 
	d="
M803.131409,185.441147 
	C803.004517,187.800949 801.297607,186.958023 799.962952,186.958481 
	C671.609924,187.002594 543.256958,186.999664 414.903931,186.988739 
	C414.080139,186.988663 413.256378,186.835602 412.608948,186.034409 
	C415.129242,184.139648 417.665161,184.395203 420.145538,184.394836 
	C545.379761,184.375641 670.614014,184.377533 795.848267,184.387604 
	C798.008972,184.387787 800.184387,184.284164 803.131409,185.441147 
z"/>
<path fill="#767676" opacity="1.000000" stroke="none" 
	d="
M412.868652,134.558792 
	C412.995605,132.198898 414.702545,133.041977 416.037140,133.041519 
	C544.390137,132.997375 672.743103,133.000336 801.096069,133.011261 
	C801.919861,133.011337 802.743591,133.164383 803.390991,133.965576 
	C800.870728,135.860382 798.334839,135.604767 795.854431,135.605148 
	C670.620239,135.624374 545.385986,135.622467 420.151764,135.612366 
	C417.991058,135.612198 415.815643,135.715820 412.868652,134.558792 
z"/>
<path fill="#000000" opacity="1.000000" stroke="none" 
	d="
M607.522461,77.000465 
	C611.526978,77.352295 613.567078,79.346153 613.974121,82.847130 
	C614.369690,86.250519 612.719543,88.353828 609.278015,89.176376 
	C611.487244,92.382744 613.633118,95.497154 615.804993,98.649307 
	C612.431702,99.830750 610.193726,98.738632 609.178772,95.586327 
	C608.514282,93.522537 606.998962,92.289474 605.412170,91.206795 
	C604.111084,90.319031 602.453003,89.327614 600.831787,90.137108 
	C599.153870,90.974876 600.261169,92.786049 600.025574,94.143639 
	C599.885315,94.951843 599.948730,95.807869 600.009644,96.635834 
	C600.124329,98.195244 599.807739,99.078705 597.880615,99.054504 
	C595.745544,99.027695 596.003174,97.714951 596.002319,96.405312 
	C595.998596,90.744446 596.081360,85.081848 595.958801,79.423637 
	C595.914185,77.364700 596.730103,76.890656 598.584778,76.969223 
	C601.410156,77.088898 604.244324,77.000252 607.522461,77.000465 
z"/>
<path fill="#000000" opacity="1.000000" stroke="none" 
	d="
M585.389160,98.862869 
	C574.265930,99.039391 568.757935,91.149323 573.304932,82.240738 
	C575.239441,78.450745 580.443054,75.914948 584.806641,77.070396 
	C589.309875,78.262779 592.348694,81.223816 592.965881,86.010139 
	C593.750427,92.095573 591.667236,95.605209 585.389160,98.862869 
z"/>
<path fill="#000000" opacity="1.000000" stroke="none" 
	d="
M535.906738,98.978912 
	C534.910522,98.562462 532.938293,100.012047 533.741272,97.658745 
	C535.799316,91.627144 537.902710,85.608421 539.801025,79.526222 
	C540.499573,77.288223 541.882874,76.921532 543.882935,76.970291 
	C545.878601,77.018944 546.378967,78.035339 547.130005,79.813789 
	C549.729370,85.969086 551.454407,92.396461 553.703857,98.713867 
	C552.338257,99.062149 551.049133,99.398560 549.900452,98.389290 
	C542.750610,92.107239 541.333557,92.163399 535.906738,98.978912 
z"/>
<path fill="#000000" opacity="1.000000" stroke="none" 
	d="
M434.264099,86.346336 
	C435.243591,83.892342 436.084015,81.805435 436.721619,79.658295 
	C437.345093,77.558784 438.626801,76.855453 440.756348,76.957787 
	C442.706146,77.051476 443.473328,77.768616 444.103790,79.734283 
	C446.110596,85.990944 448.523651,92.117294 450.880768,98.570503 
	C448.261963,99.343697 446.563385,99.394638 445.916260,96.159317 
	C445.238251,92.769371 442.232330,94.150543 440.152618,94.065369 
	C438.197449,93.985291 435.529175,93.079048 435.025848,96.338142 
	C434.527222,99.566902 432.467163,99.186775 430.383057,98.751160 
	C431.619537,94.667877 432.827911,90.677467 434.264099,86.346336 
z"/>
<path fill="#000000" opacity="1.000000" stroke="none" 
	d="
M497.999878,80.205841 
	C498.000214,84.016411 497.958832,87.349495 498.012787,90.681030 
	C498.062714,93.767334 499.811371,94.985336 502.781250,95.027473 
	C505.889771,95.071556 507.965546,94.083542 507.993286,90.617981 
	C508.021301,87.119171 507.944672,83.618637 508.029114,80.121643 
	C508.060242,78.833313 507.259613,77.047089 509.860504,76.949623 
	C512.308838,76.857887 512.005981,78.347336 512.002563,79.845978 
	C511.993927,83.678223 512.105347,87.514153 511.973602,91.341881 
	C511.799011,96.414101 508.508575,99.053741 502.695618,98.999969 
	C497.326416,98.950310 494.170319,96.196373 494.022888,91.233208 
	C493.909149,87.404320 493.974335,83.569061 494.015350,79.737228 
	C494.028351,78.523674 493.523376,77.060463 495.743805,76.950043 
	C498.041931,76.835770 498.120056,78.099037 497.999878,80.205841 
z"/>
<path fill="#000000" opacity="1.000000" stroke="none" 
	d="
M487.201294,96.308441 
	C482.118011,99.926331 476.693573,99.786392 473.745850,96.253304 
	C470.128540,91.917664 470.036194,83.834747 473.559448,79.940216 
	C476.884705,76.264603 483.791656,75.902657 487.805267,79.440071 
	C488.967346,80.464287 490.805298,82.228737 489.317017,83.813591 
	C488.098724,85.110947 486.465729,85.407188 484.756805,82.902191 
	C482.946777,80.249001 479.591522,79.818298 476.792542,82.671669 
	C474.093719,85.422928 474.218353,90.909851 477.255127,93.706245 
	C479.854156,96.099556 482.178131,95.386848 484.537079,93.045822 
	C485.675903,91.915672 486.347260,88.373238 488.956360,91.067497 
	C490.911743,93.086700 488.683746,94.567497 487.201294,96.308441 
z"/>
<path fill="#000000" opacity="1.000000" stroke="none" 
	d="
M413.103516,78.991829 
	C417.873962,75.342422 422.086731,77.010353 425.993286,79.656013 
	C427.100555,80.405891 429.076782,82.173378 427.120514,83.913193 
	C425.755280,85.127388 424.393372,85.283508 422.849670,83.095123 
	C420.889893,80.316811 417.832947,79.811378 414.969299,82.515938 
	C412.169128,85.160545 412.140198,90.618561 415.084595,93.540840 
	C417.821289,96.256996 420.372284,95.466370 422.671112,92.813766 
	C423.104431,92.313812 423.769226,91.874901 423.925934,91.298668 
	C424.653107,88.625198 425.776520,90.718620 426.782715,90.969696 
	C428.930267,91.505585 427.674652,92.377647 427.185944,93.421623 
	C425.195953,97.672630 421.874847,99.532059 417.303070,98.958420 
	C412.202240,98.318413 409.838379,94.724098 409.075378,90.148796 
	C408.378540,85.970207 409.411346,82.057472 413.103516,78.991829 
z"/>
<path fill="#000000" opacity="1.000000" stroke="none" 
	d="
M570.960327,78.026199 
	C571.429504,80.999130 569.863037,81.306358 568.047546,80.973038 
	C564.206787,80.267883 563.725647,82.247314 563.942505,85.422676 
	C564.190674,89.057014 564.008789,92.721375 563.994507,96.372612 
	C563.989563,97.651886 564.302917,98.973831 562.161682,99.054840 
	C559.762573,99.145607 559.984680,97.721916 559.993164,96.193497 
	C560.014526,92.376358 559.781250,88.542435 560.068726,84.746948 
	C560.301697,81.670486 559.387451,80.528061 556.269592,80.944756 
	C554.820068,81.138489 552.818115,81.708130 552.955383,78.807945 
	C553.078735,76.201210 554.905701,76.987823 556.145081,77.045555 
	C561.070801,77.274986 566.040222,76.311218 570.960327,78.026199 
z"/>
<path fill="#000000" opacity="1.000000" stroke="none" 
	d="
M457.001953,92.799011 
	C456.900177,95.496941 458.550812,94.962486 459.765198,94.985794 
	C462.249786,95.033478 464.737762,95.062019 467.220642,94.982483 
	C468.911957,94.928299 469.020538,95.887337 469.019745,97.186668 
	C469.019043,98.397095 468.628174,99.006554 467.346405,98.999428 
	C463.204163,98.976387 459.060272,98.930542 454.919922,99.023994 
	C452.861755,99.070442 452.991241,97.796745 452.994720,96.430351 
	C453.009094,90.796661 453.006378,85.162903 452.996704,79.529190 
	C452.994385,78.172432 452.856201,76.964607 454.931641,76.943153 
	C456.901764,76.922806 457.031128,77.897980 457.015167,79.393982 
	C456.969238,83.701630 456.999725,88.010094 457.001953,92.799011 
z"/>
<path fill="#000000" opacity="1.000000" stroke="none" 
	d="
M529.731567,98.998459 
	C524.990051,98.885811 519.366455,100.371971 516.821472,98.219009 
	C514.144592,95.954391 516.223755,90.145203 516.019958,85.890839 
	C515.908997,83.575760 516.055725,81.249260 515.983276,78.931122 
	C515.935852,77.413490 516.555054,76.964462 518.034729,76.960022 
	C519.577026,76.955391 520.033325,77.561348 520.015808,79.000465 
	C519.965332,83.143456 520.154358,87.295341 519.944763,91.428291 
	C519.807922,94.125900 520.454163,95.386208 523.410828,95.047501 
	C525.537537,94.803879 527.714966,94.985123 529.869385,95.009460 
	C530.820923,95.020210 531.949951,94.845680 531.976196,96.339500 
	C531.998779,97.626251 532.367676,99.162041 529.731567,98.998459 
z"/>
<path fill="#767676" opacity="1.000000" stroke="none" 
	d="
M412.017456,185.996582 
	C411.017609,185.676727 411.011719,184.826859 411.015594,184.006500 
	C411.093475,167.474579 411.178986,150.942657 411.649933,134.212662 
	C412.036926,134.014572 411.998260,133.991928 411.980896,133.977722 
	C413.278564,135.422195 413.548370,137.220810 413.560211,139.074188 
	C413.649384,153.024048 413.649384,166.974030 413.558838,180.923889 
	C413.549072,182.424438 413.389648,183.914337 412.262817,185.636963 
	C411.963501,186.036453 411.998138,186.007950 412.017456,185.996582 
z"/>
<path fill="#767676" opacity="1.000000" stroke="none" 
	d="
M803.982544,134.003418 
	C804.982361,134.323288 804.988281,135.173080 804.984375,135.993469 
	C804.906494,152.525391 804.821106,169.057281 804.350220,185.787262 
	C803.963196,185.985352 804.001831,186.008041 804.019165,186.022247 
	C802.721558,184.577774 802.451416,182.779266 802.439575,180.925827 
	C802.350525,166.975952 802.350647,153.025940 802.441040,139.076065 
	C802.450806,137.575516 802.610352,136.085617 803.737183,134.363052 
	C804.036499,133.963547 804.001892,133.992035 803.982544,134.003418 
z"/>
<path fill="#000000" opacity="1.000000" stroke="none" 
	d="
M460.319702,372.727905 
	C461.079620,370.821716 463.601685,371.142853 464.497375,369.051483 
	C464.497375,373.992706 464.497375,378.933929 464.497375,384.911163 
	C461.356323,380.719543 464.824219,376.201416 461.505280,373.057220 
	C460.848419,373.072937 460.622711,373.065308 460.319702,372.727905 
z"/>
<path fill="#000000" opacity="1.000000" stroke="none" 
	d="
M460.874023,372.900391 
	C460.779572,373.957916 460.204987,374.199127 459.405884,373.750366 
	C459.367950,373.729065 459.661499,373.117584 460.021545,372.589539 
	C460.386230,372.505493 460.530090,372.612854 460.874023,372.900391 
z"/>
<path fill="#000000" opacity="1.000000" stroke="none" 
	d="
M463.724915,265.688080 
	C463.813507,264.500183 465.855713,262.842133 462.950104,262.946564 
	C461.323730,263.005035 459.444641,263.582092 457.212097,261.568481 
	C461.281555,260.626343 464.529205,261.069550 468.430389,261.141602 
	C465.181274,266.174774 462.728271,270.890472 460.999237,276.009003 
	C459.720551,272.080353 462.202148,269.196625 463.724915,265.688080 
z"/>
<path fill="#000000" opacity="1.000000" stroke="none" 
	d="
M462.318481,318.728516 
	C463.225372,317.313477 464.203339,316.234955 466.098206,314.145294 
	C465.228821,320.210266 468.176025,325.104462 464.777313,331.041565 
	C464.281555,327.198151 463.178619,324.964203 459.648834,325.954926 
	C458.843445,326.180939 458.032776,325.854492 458.007324,324.703064 
	C457.987488,323.804077 458.296417,323.083496 458.976166,322.532867 
	C460.543732,321.263062 460.036438,322.820953 460.445526,323.481262 
	C461.056976,324.468140 462.516327,324.273895 463.145874,323.865143 
	C464.857391,322.753845 463.814514,320.919159 463.451477,319.221619 
	C462.848145,319.073242 462.618866,319.069183 462.318481,318.728516 
z"/>
<path fill="#000000" opacity="1.000000" stroke="none" 
	d="
M462.877106,318.897217 
	C462.978973,320.173859 462.866608,321.663818 461.406036,321.149933 
	C460.389435,320.792206 461.000092,319.590424 461.971985,318.634949 
	C462.390564,318.500397 462.533691,318.608795 462.877106,318.897217 
z"/>
<path fill="#000000" opacity="1.000000" stroke="none" 
	d="
M466.561890,208.068588 
	C467.547760,209.360077 469.067322,209.873978 468.933624,211.979248 
	C465.553009,211.198456 462.362885,205.791870 458.891357,211.448761 
	C457.212799,214.183990 457.649841,216.882248 459.508057,218.631287 
	C462.679413,221.616241 465.733429,219.689911 468.243835,216.526688 
	C466.775146,221.869781 464.484497,223.183151 460.324951,221.735641 
	C456.967255,220.567169 454.870026,215.714050 456.065063,211.878067 
	C457.398865,207.596710 460.807953,206.239212 466.561890,208.068588 
z"/>
<path fill="#000000" opacity="1.000000" stroke="none" 
	d="
M760.558105,377.308472 
	C759.240784,380.416077 757.119263,378.750793 754.247681,378.448853 
	C756.492981,376.315674 758.475952,377.280487 760.558105,377.308472 
z"/>
<path fill="#000000" opacity="1.000000" stroke="none" 
	d="
M760.267578,266.080048 
	C759.515442,266.057648 759.103027,266.032776 758.382446,266.044189 
	C757.848511,266.072845 757.622803,266.065155 757.319824,265.727722 
	C759.880371,263.130554 754.091553,264.846680 756.103210,263.038116 
	C758.076355,261.264160 760.546204,261.398468 762.106262,263.202332 
	C763.285339,264.565735 759.905029,263.146423 760.571289,265.144043 
	C760.718689,265.638550 760.662964,265.858093 760.267578,266.080048 
z"/>
<path fill="#000000" opacity="1.000000" stroke="none" 
	d="
M760.554565,265.574402 
	C761.096130,265.859802 761.417786,266.300598 761.739502,266.741364 
	C761.202820,266.707428 760.666138,266.673492 760.028625,266.361023 
	C760.063416,265.964905 760.199036,265.847351 760.554565,265.574402 
z"/>
<path fill="#000000" opacity="1.000000" stroke="none" 
	d="
M757.874023,265.900391 
	C757.779602,266.958008 757.204895,267.199066 756.405823,266.750336 
	C756.367981,266.729065 756.661560,266.117523 757.021729,265.589417 
	C757.386292,265.505371 757.530090,265.612793 757.874023,265.900391 
z"/>
<path fill="#000000" opacity="1.000000" stroke="none" 
	d="
M758.003662,220.905212 
	C757.314636,222.162033 755.975525,221.949768 756.175781,221.329651 
	C757.726624,216.526413 758.088806,211.267868 761.259216,207.031067 
	C761.048584,211.753464 759.649780,216.151291 758.003662,220.905212 
z"/>
<path fill="#000000" opacity="1.000000" stroke="none" 
	d="
M660.219482,208.555206 
	C665.365051,214.255280 665.423218,217.983185 660.237610,224.646927 
	C662.508545,219.309143 662.845459,214.045288 660.219482,208.555206 
z"/>
<path fill="#000000" opacity="1.000000" stroke="none" 
	d="
M664.267578,436.080048 
	C660.825745,434.046234 660.715881,431.734833 663.609253,429.047913 
	C664.151489,428.927155 664.377197,428.934845 664.680176,429.272278 
	C663.369568,431.264618 663.193115,433.022949 664.557129,435.152405 
	C664.718689,435.638550 664.662964,435.858093 664.267578,436.080048 
z"/>
<path fill="#000000" opacity="1.000000" stroke="none" 
	d="
M660.079590,429.732056 
	C659.928711,431.461548 658.874268,432.833069 660.041687,434.585510 
	C660.072388,435.151550 660.064697,435.377655 659.726257,435.679626 
	C657.145996,433.901917 656.730347,431.896149 659.153137,429.452576 
	C659.635986,429.282684 659.856812,429.336884 660.079590,429.732056 
z"/>
<path fill="#000000" opacity="1.000000" stroke="none" 
	d="
M659.899658,435.125305 
	C660.664429,435.475159 661.248718,436.024933 661.833069,436.574707 
	C661.011414,437.262878 660.359619,436.987061 659.595337,435.985535 
	C659.503418,435.612061 659.611328,435.468628 659.899658,435.125305 
z"/>
<path fill="#000000" opacity="1.000000" stroke="none" 
	d="
M659.571655,429.447632 
	C660.055847,428.544586 660.550171,427.464264 661.773315,428.357758 
	C661.404541,428.857910 661.035767,429.358063 660.374268,429.965637 
	C659.963806,429.937622 659.846008,429.802185 659.571655,429.447632 
z"/>
<path fill="#000000" opacity="1.000000" stroke="none" 
	d="
M664.554565,435.574402 
	C665.096130,435.859772 665.417847,436.300568 665.739502,436.741394 
	C665.202820,436.707458 664.666138,436.673523 664.028625,436.361053 
	C664.063416,435.964905 664.199036,435.847351 664.554565,435.574402 
z"/>
<path fill="#000000" opacity="1.000000" stroke="none" 
	d="
M664.125977,429.099609 
	C664.220398,428.041992 664.795105,427.800964 665.594177,428.249664 
	C665.632080,428.270935 665.338440,428.882507 664.978271,429.410583 
	C664.613708,429.494629 664.469910,429.387207 664.125977,429.099609 
z"/>
<path fill="#000000" opacity="1.000000" stroke="none" 
	d="
M758.301392,327.569458 
	C758.877991,323.770966 756.008911,324.032867 752.901733,323.358887 
	C756.028625,321.946991 759.111450,321.587982 758.492065,317.744507 
	C760.197510,319.802246 760.280396,323.267151 764.313293,322.540161 
	C760.968933,323.209869 760.298828,326.097351 758.301392,327.569458 
z"/>
<path fill="#000000" opacity="1.000000" stroke="none" 
	d="
M759.915527,427.000000 
	C761.578918,427.110107 762.919739,426.632965 764.450073,428.086487 
	C760.740295,429.636749 757.422607,428.960602 753.592529,428.643463 
	C755.410522,426.112396 757.651184,427.367706 759.915527,427.000000 
z"/>
<path fill="#000000" opacity="1.000000" stroke="none" 
	d="
M759.915527,432.000000 
	C761.578796,432.110474 762.919861,431.632446 764.449463,433.086731 
	C760.740295,434.636749 757.422607,433.960602 753.592529,433.643463 
	C755.410522,431.112396 757.651184,432.367706 759.915527,432.000000 
z"/>
<path fill="#000000" opacity="1.000000" stroke="none" 
	d="
M662.857910,381.976624 
	C667.296143,378.237762 663.913391,377.376068 660.486267,376.437805 
	C661.894470,375.026489 662.546021,374.062927 664.365417,375.377106 
	C666.221863,376.718079 667.741455,377.995514 666.816711,380.403992 
	C665.968994,382.611969 664.349426,383.916779 661.769104,384.041779 
	C659.012207,384.175323 657.880005,382.694885 656.616821,380.274994 
	C659.417297,379.722900 660.285278,382.897430 662.857910,381.976624 
z"/>
<path fill="#000000" opacity="1.000000" stroke="none" 
	d="
M661.137207,369.001343 
	C663.723694,368.665314 664.913147,370.063507 665.830566,371.673767 
	C666.203125,372.327576 666.287415,373.365631 665.455139,373.901947 
	C663.784607,374.978455 664.226440,373.302246 663.849426,372.621338 
	C661.654236,368.657135 659.543701,372.985809 656.957397,372.965454 
	C657.395569,370.470337 658.611694,369.322052 661.137207,369.001343 
z"/>
<path fill="#000000" opacity="1.000000" stroke="none" 
	d="
M663.919373,274.270142 
	C663.464905,272.565674 665.456604,271.754456 664.673523,270.174438 
	C662.363953,270.157623 659.647400,272.793182 657.804626,268.676666 
	C656.653076,266.104309 656.882202,263.996216 658.453369,262.462982 
	C659.858032,261.092285 662.192383,259.847015 664.691589,262.417999 
	C662.301270,263.450226 658.573730,262.241730 658.989075,266.369080 
	C659.172974,268.196960 660.114990,268.927704 661.893005,269.013580 
	C666.015747,269.212769 664.423157,265.562408 666.024780,262.677216 
	C667.467896,267.306549 667.726379,270.820221 664.888184,274.501343 
	C664.369446,274.714142 664.142517,274.666107 663.919373,274.270142 
z"/>
<path fill="#000000" opacity="1.000000" stroke="none" 
	d="
M664.436890,274.545166 
	C661.076416,277.532257 658.792664,276.052399 656.693970,272.433411 
	C659.445435,271.602264 660.741272,275.166138 663.533447,273.957611 
	C664.041199,274.057556 664.159241,274.192871 664.436890,274.545166 
z"/>
<path fill="#000000" opacity="1.000000" stroke="none" 
	d="
M660.080627,316.729858 
	C659.744019,318.258423 659.411133,319.439087 658.888733,321.291748 
	C661.969421,319.888245 664.825195,318.938721 666.550659,322.124359 
	C667.733093,324.307587 667.325439,326.904053 665.609680,328.495789 
	C664.137573,329.861572 661.873657,331.102356 659.280273,328.621399 
	C661.635437,327.511963 665.420776,328.790192 665.014526,324.673950 
	C664.834229,322.847076 663.931763,322.084839 662.142334,321.986786 
	C658.010254,321.760223 659.552307,325.393921 658.002319,328.341827 
	C656.515991,323.683105 656.267517,320.176239 659.111816,316.498657 
	C659.630554,316.285858 659.857483,316.333893 660.080627,316.729858 
z"/>
<path fill="#000000" opacity="1.000000" stroke="none" 
	d="
M659.563110,316.454834 
	C662.923584,313.467743 665.207336,314.947601 667.306030,318.566589 
	C664.554565,319.397736 663.258728,315.833862 660.466553,317.042389 
	C659.958801,316.942444 659.840759,316.807129 659.563110,316.454834 
z"/>
<path fill="#000000" opacity="1.000000" stroke="none" 
	d="
M565.934448,220.795334 
	C565.483521,222.508224 567.682678,223.360184 566.597290,224.767456 
	C561.635132,218.721786 561.580200,215.011383 566.754211,207.807816 
	C566.304749,212.381149 563.331787,216.278107 565.934448,220.795334 
z"/>
<path fill="#000000" opacity="1.000000" stroke="none" 
	d="
M560.341492,372.656738 
	C562.322388,368.850555 565.777588,367.818634 568.365540,369.898132 
	C570.852234,371.896271 570.703674,373.504913 567.559204,377.385712 
	C566.050964,375.475189 569.784546,373.004913 566.825073,371.340271 
	C564.138794,369.829315 562.715393,372.540619 560.341492,372.656738 
z"/>
<path fill="#000000" opacity="1.000000" stroke="none" 
	d="
M569.488281,383.744080 
	C566.440857,383.960022 563.787598,383.974579 561.134521,383.953766 
	C560.824951,383.951355 560.517029,383.753479 560.208923,383.644470 
	C561.568726,380.964233 566.772583,380.904755 569.488281,383.744080 
z"/>
<path fill="#000000" opacity="1.000000" stroke="none" 
	d="
M565.695801,379.636475 
	C564.811096,379.757996 564.260620,379.583344 563.710083,379.408722 
	C564.100769,378.961273 564.424988,378.245026 564.897400,378.128265 
	C565.637390,377.945404 566.598389,378.058777 565.695801,379.636475 
z"/>
<path fill="#000000" opacity="1.000000" stroke="none" 
	d="
M565.105530,315.000122 
	C566.695251,315.224365 568.154419,314.435181 569.202209,316.185791 
	C567.703857,317.521790 566.000610,316.923767 564.506226,316.981873 
	C562.590210,317.056366 563.079346,318.364288 563.017151,319.440460 
	C562.945618,320.679443 563.448853,320.539124 564.429993,320.251190 
	C567.317688,319.403778 569.381287,320.554413 569.928040,323.479156 
	C570.444031,326.239807 569.537537,328.726685 566.627625,329.687042 
	C563.648804,330.670074 561.177368,329.969025 559.806946,326.336945 
	C562.614929,325.945068 565.121155,330.214294 567.605042,326.765167 
	C568.386902,325.679443 568.438171,324.090057 567.465942,323.054840 
	C565.301880,320.750519 562.723511,322.357330 560.091919,322.703430 
	C562.129883,320.274353 559.193665,315.216370 565.105530,315.000122 
z"/>
<path fill="#000000" opacity="1.000000" stroke="none" 
	d="
M567.626343,269.405090 
	C570.441589,270.253418 570.704956,272.170532 569.234070,274.213440 
	C567.358948,276.817749 564.477600,276.634583 562.151367,275.467163 
	C560.030518,274.402863 558.887207,272.207214 561.112915,269.497040 
	C561.623596,269.291595 561.850159,269.339935 562.312866,269.639526 
	C564.093018,272.709259 565.635742,273.416534 567.626343,269.405090 
z"/>
<path fill="#000000" opacity="1.000000" stroke="none" 
	d="
M561.559692,269.457703 
	C562.860779,267.160522 559.243774,264.717560 562.139404,262.470947 
	C562.643738,262.265594 562.868408,262.305847 563.307129,262.608398 
	C564.224548,264.007233 564.641724,266.678619 566.322510,263.059875 
	C566.616455,262.577301 566.762939,262.400482 567.253662,262.231384 
	C570.141602,264.044098 568.838989,266.120972 568.046936,268.543152 
	C567.952454,269.051392 567.827820,269.180359 567.516846,269.503204 
	C565.824646,270.187500 564.284119,270.428528 562.389404,270.209045 
	C561.961304,269.940033 561.841919,269.806061 561.559692,269.457703 
z"/>
<path fill="#000000" opacity="1.000000" stroke="none" 
	d="
M562.574585,262.445374 
	C563.823792,260.447174 565.432312,260.588013 567.372192,261.981171 
	C567.491150,262.383423 567.384338,262.527710 567.100098,262.874695 
	C565.968079,263.868805 564.914124,264.009766 563.423584,263.318176 
	C562.961548,262.940033 562.845825,262.802704 562.574585,262.445374 
z"/>
<path fill="#000000" opacity="1.000000" stroke="none" 
	d="
M569.986694,427.458496 
	C569.995605,429.720978 570.295898,431.617096 569.916687,433.365814 
	C569.412109,435.691772 568.901917,438.277588 565.393860,438.038849 
	C562.122986,437.816193 560.296326,436.302185 560.017944,433.041016 
	C559.919189,431.884491 560.006592,430.712585 559.998901,429.547729 
	C559.981018,426.848846 560.151489,423.923126 563.200195,423.129395 
	C566.342590,422.311310 568.912598,423.645111 569.986694,427.458496 
z"/>
<path fill="#FFFFFF" opacity="1.000000" stroke="none" 
	d="
M803.565796,133.978485 
	C804.026550,151.007324 804.016602,168.051086 804.021606,185.565659 
	C673.659363,186.026505 543.282227,186.016541 412.434326,186.021515 
	C411.973480,168.992676 411.983459,151.948914 411.978485,134.434326 
	C542.340698,133.973511 672.717834,133.983475 803.565796,133.978485 
z"/>
<path fill="#FFFFFF" opacity="1.000000" stroke="none" 
	d="
M607.517212,81.010147 
	C609.675415,81.524399 610.405701,82.780563 609.870972,84.372833 
	C609.413025,85.736679 608.101074,86.113029 606.638306,86.022346 
	C605.001526,85.920891 603.350647,85.935028 601.711426,86.013405 
	C599.969116,86.096710 599.909485,85.001732 600.009460,83.775681 
	C600.105347,82.599365 599.438416,80.957344 601.653809,80.997314 
	C603.460510,81.029915 605.268372,81.002243 607.517212,81.010147 
z"/>
<path fill="#FFFFFF" opacity="1.000000" stroke="none" 
	d="
M577.229248,92.586166 
	C575.308350,88.512222 575.144897,84.852753 578.636963,82.180588 
	C581.359314,80.097458 584.693237,80.371994 587.075134,82.728119 
	C589.758484,85.382385 589.801819,88.899086 587.941589,92.129227 
	C586.235718,95.091415 583.340515,95.507607 580.290588,94.665215 
	C579.258423,94.380142 578.381531,93.533295 577.229248,92.586166 
z"/>
<path fill="#FFFFFF" opacity="1.000000" stroke="none" 
	d="
M544.027466,83.094345 
	C544.692383,84.941177 545.432739,86.358025 545.926819,87.856110 
	C546.150818,88.535080 546.305786,89.679428 545.240417,89.890709 
	C544.130310,90.110855 542.917236,90.115173 541.801697,89.917656 
	C540.729980,89.727898 540.851501,88.608864 541.063599,87.902962 
	C541.699585,85.786560 542.502075,83.720016 543.251831,81.638405 
	C543.293091,81.523819 543.445007,81.449081 543.545410,81.355789 
	C543.697754,81.803024 543.850037,82.250267 544.027466,83.094345 
z"/>
<path fill="#FFFFFF" opacity="1.000000" stroke="none" 
	d="
M439.674500,83.786636 
	C440.055908,82.861916 440.164368,82.230003 440.272858,81.598091 
	C441.871643,83.655731 442.197510,86.221992 442.930359,88.598701 
	C443.374847,90.040276 441.992004,89.945671 441.025360,90.000786 
	C438.644409,90.136566 436.929169,89.835304 438.588013,86.814720 
	C439.035553,85.999817 439.139771,84.996353 439.674500,83.786636 
z"/>
<path fill="#DFDFDF" opacity="1.000000" stroke="none" 
	d="
M562.044128,270.467773 
	C563.489807,268.920715 565.065063,268.696320 567.053467,269.465698 
	C568.652832,271.584137 568.215393,273.307312 566.145081,273.871460 
	C563.967712,274.464813 561.848572,273.970856 562.044128,270.467773 
z"/>
<path fill="#DFDFDF" opacity="1.000000" stroke="none" 
	d="
M563.042236,263.493591 
	C564.103455,263.053864 565.129517,263.030426 566.539185,263.042175 
	C566.510925,264.458740 568.388367,266.763702 565.180176,267.024902 
	C562.457825,267.246552 563.043274,265.421783 563.042236,263.493591 
z"/>
<path fill="#DFDFDF" opacity="1.000000" stroke="none" 
	d="
M564.130615,425.029480 
	C566.444946,424.897552 568.057190,425.397247 567.940674,427.597321 
	C567.804321,430.171997 569.100098,433.155579 567.067810,435.225861 
	C565.560547,436.761230 562.663452,436.687073 562.329956,434.288696 
	C561.913147,431.290710 560.439453,427.680878 564.130615,425.029480 
z"/>
</svg>