<svg version="1.1" id="Layer_1" xmlns="http://www.w3.org/2000/svg" xmlns:xlink="http://www.w3.org/1999/xlink" x="0px" y="0px"
	 width="100%" viewBox="0 0 500 500" enable-background="new 0 0 500 500" xml:space="preserve">
<path fill="#000001" opacity="1.000000" stroke="none" 
	d="
M500.691650,188.706726 
	C501.000000,291.457550 500.981293,393.915100 501.079437,496.372559 
	C501.082794,499.884338 500.665802,501.115082 496.631012,501.111847 
	C332.865662,500.980865 169.100174,500.989075 5.334757,501.076477 
	C1.970973,501.078278 0.875821,500.685760 0.883308,496.838013 
	C1.038250,417.204651 1.000000,337.570953 1.000000,257.468658 
	C1.814486,256.085358 2.853899,255.713669 4.058074,255.658768 
	C5.596810,255.588593 7.268947,255.382797 7.135627,253.358658 
	C7.005329,251.380417 5.252848,251.416611 3.769539,251.312088 
	C2.933070,251.253128 2.161903,251.022369 1.253588,250.237335 
	C1.000000,168.371750 1.020682,86.743477 0.922229,5.115342 
	C0.918404,1.943829 1.219604,0.889392 4.881071,0.892171 
	C168.970413,1.016736 333.059875,1.017480 497.149231,0.889219 
	C500.872833,0.886308 501.078735,2.036868 501.073425,5.145679 
	C500.973724,63.784550 501.000000,122.423637 501.000000,181.531342 
	C499.232941,184.302307 496.670654,184.172165 494.179962,184.195297 
	C485.871460,184.272461 477.562073,184.167740 469.254211,184.263245 
	C467.357544,184.285049 465.269684,183.710205 463.395966,185.452988 
	C465.005035,187.269653 467.083191,186.714417 468.901703,186.735092 
	C477.209595,186.829529 485.519379,186.705444 493.827240,186.817383 
	C496.100281,186.848022 498.551819,186.442505 500.691650,188.706726 
z"/>
<path fill="#17D2EE" opacity="1.000000" stroke="none" 
	d="
M501.000000,188.562500 
	C488.032898,189.064285 475.065063,189.071533 462.099304,189.240234 
	C459.456635,189.274612 458.653442,188.362061 458.713013,185.790375 
	C458.770477,183.309540 458.982056,181.780304 462.149841,181.819473 
	C474.787415,181.975739 487.427948,181.893219 500.533691,181.949539 
	C501.000000,184.041672 501.000000,186.083328 501.000000,188.562500 
z"/>
<path fill="#15CCE0" opacity="1.000000" stroke="none" 
	d="
M1.000000,250.437500 
	C1.815492,251.650497 2.618686,250.197525 3.221144,249.869644 
	C5.542892,248.606049 7.360963,249.358673 8.872540,251.154831 
	C10.223468,252.760056 10.082191,254.545837 8.774118,256.096832 
	C7.214115,257.946503 5.314750,258.466370 3.126966,257.048492 
	C2.585806,256.697784 1.967965,256.465363 1.192684,256.589294 
	C1.000000,254.958328 1.000000,252.916672 1.000000,250.437500 
z"/>
<path fill="#16C1E2" opacity="1.000000" stroke="none" 
	d="
M94.630371,181.096252 
	C119.109200,182.921860 144.032257,203.158951 152.094025,227.583817 
	C153.227081,231.016617 154.866272,234.383575 154.182678,238.535370 
	C154.437317,240.284027 154.271378,241.571701 152.770935,242.779007 
	C151.916046,243.198105 151.387238,243.291046 150.444458,243.207123 
	C147.889969,242.168320 146.595169,240.029144 144.177963,238.758179 
	C141.243713,235.341492 140.958923,231.181107 139.283722,227.591797 
	C128.840958,205.216934 110.847054,194.128006 86.702950,192.107773 
	C85.057198,191.970062 83.378937,192.122437 81.435013,191.389557 
	C79.528969,189.983551 78.288513,188.394928 76.570602,186.779892 
	C76.323074,186.199554 76.260040,185.952896 76.194595,185.323990 
	C76.480759,183.006149 77.820374,181.899063 79.677887,180.769043 
	C83.379776,179.822556 86.783554,180.255264 90.595047,180.530350 
	C92.090546,181.032516 93.203041,180.972900 94.630371,181.096252 
z"/>
<path fill="#16BFE0" opacity="1.000000" stroke="none" 
	d="
M67.471680,319.669800 
	C56.462917,317.617462 47.536083,312.282928 39.176765,305.232422 
	C28.503746,294.135956 20.047630,282.163818 16.820679,267.055511 
	C16.191526,264.109894 15.955491,261.561981 18.571222,259.085907 
	C24.314524,257.741058 25.912848,258.477417 27.328123,263.607758 
	C30.564196,275.338348 35.704422,285.967468 44.848270,294.246765 
	C56.587811,304.876312 70.104446,311.048492 86.313988,309.944824 
	C93.109322,309.482147 95.655380,311.611725 95.166908,318.020874 
	C93.207863,321.171478 90.459206,321.830963 87.362358,322.025635 
	C80.708649,322.443878 74.271370,321.304626 67.471680,319.669800 
z"/>
<path fill="#15CFE3" opacity="1.000000" stroke="none" 
	d="
M19.265266,259.680542 
	C15.470357,265.767670 19.063690,271.030914 20.809715,276.081207 
	C23.746180,284.574829 28.551800,292.176300 35.067570,298.542358 
	C36.743668,300.179932 38.326878,301.864380 38.948345,304.589600 
	C21.415064,289.787628 12.886502,270.499969 14.409262,247.427811 
	C16.818321,210.926773 43.011490,184.258133 79.595657,180.561249 
	C79.967575,182.729446 78.695572,184.025360 76.680649,185.208557 
	C75.090820,187.127121 73.224258,187.624191 71.226212,188.087509 
	C43.593956,194.495026 24.309069,216.166489 20.965950,244.318970 
	C20.514864,248.117569 19.811394,251.850296 20.533224,255.686295 
	C20.784609,257.022217 20.501156,258.336945 19.265266,259.680542 
z"/>
<path fill="#15CCE0" opacity="1.000000" stroke="none" 
	d="
M67.379898,319.868561 
	C68.481781,317.024353 70.278221,319.093872 71.758774,319.448853 
	C79.234749,321.241180 86.644165,322.850067 94.056961,317.940094 
	C95.698997,315.230957 98.195618,314.625031 100.615082,314.065277 
	C128.894440,307.522919 150.924194,279.745728 149.900879,249.936249 
	C149.821640,247.627777 149.614792,245.252304 151.004150,242.760269 
	C152.014923,241.431076 152.842911,240.435760 153.947357,239.161270 
	C157.508545,245.118668 156.458679,251.861374 155.834747,258.300842 
	C151.634506,301.651367 110.119781,330.625732 67.379898,319.868561 
z"/>
<path fill="#15D2E7" opacity="1.000000" stroke="none" 
	d="
M455.054657,186.325287 
	C413.133392,186.526627 371.492157,186.580109 329.850952,186.620743 
	C283.211639,186.666260 236.572357,186.700150 189.466568,186.791061 
	C188.643799,186.543762 188.488495,186.167725 188.785278,185.457825 
	C190.330582,185.141800 191.655304,185.009476 192.980042,185.009399 
	C279.991669,185.003998 367.003326,185.009293 454.478302,185.055328 
	C455.312256,185.367645 455.455688,185.721344 455.054657,186.325287 
z"/>
<path fill="#16DEF3" opacity="1.000000" stroke="none" 
	d="
M386.202332,281.569702 
	C314.021240,281.818359 242.030579,281.790680 169.586548,281.679871 
	C168.696426,281.399841 168.523483,281.057770 168.818268,280.369202 
	C170.219681,280.088593 171.381790,279.976318 172.543915,279.976288 
	C243.372360,279.974792 314.200806,279.982544 385.489929,280.060944 
	C386.315674,280.436523 386.462982,280.823517 386.202332,281.569702 
z"/>
<path fill="#39CBDF" opacity="1.000000" stroke="none" 
	d="
M344.161957,247.730972 
	C345.095581,250.765549 345.934692,253.413803 346.773773,256.062042 
	C347.081360,256.087830 347.388947,256.113586 347.696533,256.139374 
	C348.801361,252.334778 349.944946,248.540878 350.995911,244.721466 
	C351.590881,242.559387 352.675354,240.994781 355.137207,241.368576 
	C357.627594,241.746704 357.438446,243.791092 357.435333,245.643799 
	C357.427002,250.634811 357.485046,255.626816 357.395569,260.616241 
	C357.371979,261.930878 358.030548,264.068573 355.629578,263.938263 
	C353.350708,263.814575 354.091949,261.748444 354.058319,260.410706 
	C353.966736,256.768280 354.026855,253.121994 354.026855,248.523376 
	C351.349976,252.459305 351.180969,256.340973 349.764893,259.728027 
	C349.135498,261.233429 349.675385,263.984100 347.099518,263.861908 
	C345.048798,263.764587 345.251129,261.432098 344.747040,259.937927 
	C343.561279,256.423004 342.418854,252.893448 340.156006,249.533188 
	C340.156006,253.234146 340.219788,256.936798 340.121796,260.635162 
	C340.087036,261.946106 340.804626,264.121521 338.386780,263.934204 
	C336.158813,263.761536 336.953491,261.660858 336.928192,260.338654 
	C336.835968,255.515762 336.891754,250.690033 336.891724,245.865372 
	C336.891724,243.891144 336.476074,241.570831 339.389648,241.347137 
	C341.819641,241.160568 342.923035,242.753159 343.360870,244.960953 
	C343.521393,245.770386 343.827667,246.550934 344.161957,247.730972 
z"/>
<path fill="#15BBD9" opacity="1.000000" stroke="none" 
	d="
M253.667938,296.894775 
	C244.515930,298.219360 235.261185,298.567078 225.648682,296.903992 
	C218.158524,294.822815 212.708069,290.049164 206.885880,285.930756 
	C206.231415,285.467834 206.307022,284.446106 206.925476,283.395935 
	C215.810257,283.772400 224.449249,282.470154 233.392166,284.026886 
	C234.203430,284.410980 234.511108,284.763977 234.694366,285.598083 
	C234.066574,288.257690 232.225464,288.221466 230.363907,288.209076 
	C228.582092,288.197205 226.752884,287.792847 225.038544,288.710571 
	C228.338943,292.848663 234.749649,293.370117 241.620850,289.915649 
	C247.099792,289.836456 250.461258,292.951630 253.667938,296.894775 
z"/>
<path fill="#35BCCF" opacity="1.000000" stroke="none" 
	d="
M400.855713,230.908386 
	C401.486023,232.756134 404.201508,234.298813 401.619690,235.789139 
	C399.454315,237.039078 399.119476,234.348907 398.147949,233.219177 
	C396.193939,230.947083 396.054138,227.075409 392.130096,226.516846 
	C391.486542,226.425262 391.006836,225.752914 391.179016,224.997543 
	C391.475952,223.695190 392.610870,223.715485 393.559784,223.799194 
	C397.282318,224.127579 397.591522,221.838867 397.387146,219.034805 
	C397.140900,215.656204 394.599213,216.481339 392.554382,216.297119 
	C390.265656,216.090912 389.753265,217.313721 389.782532,219.302826 
	C389.848694,223.797470 389.826172,228.294220 389.772888,232.789322 
	C389.755859,234.223221 390.027313,236.147263 387.753662,236.004944 
	C385.902954,235.889099 386.134583,234.195450 386.128082,232.903397 
	C386.101166,227.575302 386.181885,222.245850 386.087158,216.919296 
	C386.042450,214.403610 387.018219,213.167221 389.578094,213.264877 
	C390.575500,213.302933 391.575867,213.259552 392.574890,213.261246 
	C401.128204,213.275787 403.804504,217.885056 399.351410,225.469482 
	C397.837158,228.048599 400.241943,228.893982 400.855713,230.908386 
z"/>
<path fill="#38C8DC" opacity="1.000000" stroke="none" 
	d="
M224.158051,216.773819 
	C227.035904,213.373703 233.081680,212.263519 236.433945,214.068832 
	C238.490128,215.176147 238.966110,216.995636 238.871536,219.109879 
	C238.832458,219.983734 238.579727,220.754364 237.609756,220.998154 
	C236.421936,221.296692 235.535950,220.786789 235.468674,219.620285 
	C235.225281,215.399323 232.160126,216.031433 229.650635,216.414734 
	C226.509979,216.894455 227.528625,219.673416 227.432480,221.657013 
	C227.304016,224.307129 227.491516,226.971664 227.390259,229.624176 
	C227.237854,233.616348 230.024124,232.954285 232.485519,233.076309 
	C235.315384,233.216553 235.810974,231.567642 235.740738,229.297607 
	C235.679886,227.331879 235.399551,225.860641 232.930206,227.420212 
	C231.676392,228.212112 230.636368,227.513626 230.068069,226.399979 
	C229.599594,225.481934 229.750824,224.453903 230.641113,223.708755 
	C231.761093,222.771378 232.996918,222.956421 233.657578,224.037186 
	C234.535095,225.472748 234.994629,226.734283 236.632767,224.692749 
	C237.171600,224.021225 238.561478,224.450272 238.724716,225.191132 
	C239.331970,227.947266 239.597931,230.850815 238.560471,233.503662 
	C237.766266,235.534485 235.701248,235.953842 233.567139,236.070145 
	C225.188141,236.526840 223.976120,235.452072 223.984055,227.154434 
	C223.987228,223.834579 224.034576,220.514740 224.158051,216.773819 
z"/>
<path fill="#35BCCF" opacity="1.000000" stroke="none" 
	d="
M368.960236,235.449768 
	C365.598572,233.306870 366.548065,230.236862 366.395020,227.516617 
	C366.292389,225.692337 366.371948,223.857635 366.375549,222.027588 
	C366.391022,214.195770 367.613861,212.994125 375.289246,213.262466 
	C380.592773,213.447891 381.925995,214.823547 381.981476,220.247345 
	C382.012085,223.241638 382.013611,226.236816 381.980316,229.231064 
	C381.919373,234.712631 380.665161,236.017151 375.254791,236.052063 
	C373.275787,236.064850 371.295044,235.812622 368.960236,235.449768 
z"/>
<path fill="#35BCCF" opacity="1.000000" stroke="none" 
	d="
M250.199219,213.262711 
	C258.085480,213.401947 258.975616,214.284256 258.986481,221.572662 
	C258.990723,224.401306 259.051453,227.231842 258.970123,230.058167 
	C258.830292,234.917648 257.362183,236.054794 251.425842,236.075989 
	C244.930237,236.099152 243.584885,235.135025 243.405762,230.028687 
	C243.289169,226.704880 243.502472,223.368042 243.346863,220.047409 
	C243.131424,215.449982 245.144638,213.162903 250.199219,213.262711 
z"/>
<path fill="#39CBDF" opacity="1.000000" stroke="none" 
	d="
M191.817657,231.450470 
	C191.931976,227.682205 191.801117,224.347931 192.001068,221.033630 
	C192.196732,217.790649 191.356613,216.208801 187.658340,216.134521 
	C183.941406,216.059860 183.151871,217.556702 183.317764,220.837952 
	C183.527390,224.983887 183.370468,229.149948 183.314987,233.306580 
	C183.300339,234.404007 183.532608,235.826935 181.854935,235.973999 
	C179.737762,236.159592 180.015244,234.505249 180.007034,233.240509 
	C179.971375,227.753204 179.977158,222.265457 180.005661,216.778076 
	C180.009903,215.962936 179.935379,214.664642 180.373215,214.410797 
	C183.899704,212.366302 187.765854,213.316208 191.485840,213.623856 
	C193.894547,213.823074 195.288300,215.491714 195.284744,218.074112 
	C195.278809,222.397263 195.438324,226.726730 195.253677,231.041794 
	C195.076675,235.178604 189.421326,237.979721 185.886688,235.814285 
	C185.526520,235.593628 185.145279,235.090363 185.122665,234.698105 
	C185.065948,233.714874 185.757416,233.308441 186.661545,233.119156 
	C188.358719,232.763794 190.402298,233.816071 191.817657,231.450470 
z"/>
<path fill="#38C8DC" opacity="1.000000" stroke="none" 
	d="
M440.943481,236.047089 
	C437.098633,236.087097 433.591034,236.227631 433.026276,231.576050 
	C432.869446,230.283905 432.697968,228.646744 434.448334,228.322830 
	C435.956543,228.043701 436.206573,229.355408 436.440063,230.576477 
	C437.253723,234.832367 440.655334,232.938950 442.878723,232.881592 
	C445.963409,232.802002 445.013367,229.969757 444.865295,228.222137 
	C444.573059,224.772781 441.682343,226.057739 439.798492,226.003799 
	C436.126251,225.898651 433.063232,225.310974 432.992889,220.723831 
	C432.952301,218.077591 432.471985,214.970856 435.775055,213.998764 
	C439.601166,212.872757 443.644775,212.310165 447.174805,215.004623 
	C447.832886,215.506927 448.122498,216.729172 448.228210,217.659393 
	C448.367798,218.888046 448.780609,220.536865 446.892090,220.859192 
	C445.299683,221.130981 445.224609,219.833405 444.905731,218.643829 
	C443.859680,214.741119 440.637268,216.337524 438.326599,216.500854 
	C436.162354,216.653839 436.323608,218.842941 436.488007,220.486252 
	C436.824158,223.846481 439.486786,222.882492 441.470306,222.947174 
	C447.307617,223.137527 448.334045,224.328873 448.398621,230.058899 
	C448.455505,235.108948 445.659088,236.333252 440.943481,236.047089 
z"/>
<path fill="#38C8DC" opacity="1.000000" stroke="none" 
	d="
M393.840546,248.690857 
	C393.237396,244.890961 391.181793,243.895691 387.791962,244.207520 
	C385.542297,244.414459 384.451202,245.206497 384.410553,247.502090 
	C384.366241,250.005737 385.411530,250.914078 387.983307,251.029861 
	C395.713867,251.377960 396.331970,252.011719 396.365509,257.579651 
	C396.381226,260.187012 396.302979,263.106598 393.281525,263.610291 
	C389.489868,264.242340 385.332672,265.381958 381.968384,262.153290 
	C381.432159,261.638641 381.139984,260.687439 381.072083,259.908630 
	C380.962708,258.654419 380.481873,257.011078 382.153442,256.454773 
	C384.105316,255.805206 384.135925,257.441650 384.460632,258.742401 
	C385.482605,262.836945 388.838593,260.987946 391.044708,260.848267 
	C394.019470,260.659882 393.064819,257.772003 392.837250,256.052490 
	C392.395294,252.713577 389.502014,254.040756 387.620087,254.012177 
	C383.521362,253.949966 380.853699,252.761902 380.942230,248.040146 
	C380.994995,245.226318 381.059479,242.369629 384.412750,241.764404 
	C388.107452,241.097580 392.281525,240.026474 395.223419,243.208298 
	C396.505280,244.594711 398.342712,247.689301 393.840546,248.690857 
z"/>
<path fill="#38C8DC" opacity="1.000000" stroke="none" 
	d="
M328.573914,214.612488 
	C331.857971,212.751236 335.051178,213.193253 338.162659,213.514374 
	C340.500610,213.755661 342.223694,215.039886 342.266174,217.692245 
	C342.286133,218.936783 342.781311,220.578339 340.853760,220.860764 
	C339.240723,221.097092 339.193512,219.784973 338.908783,218.600510 
	C338.016357,214.888474 334.962463,216.438080 332.764313,216.399811 
	C330.513763,216.360641 330.419495,218.304550 330.435638,220.036957 
	C330.466492,223.349426 332.847748,222.935944 335.017761,222.979874 
	C341.678558,223.114700 343.636536,225.552963 342.222382,232.095428 
	C341.082245,237.370331 336.746918,235.808731 333.325409,236.023300 
	C330.259247,236.215576 327.596100,235.497925 327.063660,231.880005 
	C326.882050,230.645920 326.491150,228.978561 328.176544,228.444305 
	C330.131134,227.824768 330.133911,229.476181 330.464905,230.767090 
	C331.510681,234.845291 334.834198,232.909103 337.074371,232.858200 
	C339.766479,232.797043 338.901031,230.181824 338.919098,228.515961 
	C338.953552,225.345490 336.481506,226.017868 334.597076,225.955780 
	C326.982422,225.704880 324.957336,222.183701 328.573914,214.612488 
z"/>
<path fill="#38C8DC" opacity="1.000000" stroke="none" 
	d="
M299.972321,247.671753 
	C297.735291,249.964600 297.373901,248.580719 296.687988,246.654343 
	C295.781616,244.108841 290.491791,243.238983 288.795227,245.169556 
	C287.673004,246.446533 287.960632,248.032745 288.386322,249.419281 
	C289.064514,251.628357 291.086426,250.895752 292.638336,250.948486 
	C299.314240,251.175385 300.476624,252.495499 300.140259,258.970673 
	C299.968445,262.277802 298.325897,263.830292 295.215424,264.006744 
	C293.226379,264.119537 291.210297,264.167236 289.232971,263.973114 
	C286.639343,263.718506 284.858002,262.381866 284.870850,259.518341 
	C284.876373,258.292603 284.337036,256.598877 286.289246,256.327087 
	C287.938171,256.097504 287.915436,257.466248 288.168793,258.637329 
	C289.068695,262.796600 292.458008,260.967529 294.677765,260.871246 
	C297.596222,260.744720 296.895325,257.968109 296.657684,256.166199 
	C296.218628,252.836487 293.394867,253.984802 291.481750,254.004501 
	C287.047577,254.050140 284.713562,252.561829 284.719696,247.636505 
	C284.725433,243.046768 286.779114,241.418137 291.018677,241.283752 
	C297.990112,241.062759 299.522095,241.992538 299.972321,247.671753 
z"/>
<path fill="#38C8DC" opacity="1.000000" stroke="none" 
	d="
M347.196991,228.925018 
	C349.541626,227.646973 349.823212,228.944885 350.187958,230.664154 
	C351.066071,234.803635 354.491913,232.981140 356.712708,232.862793 
	C359.612640,232.708267 358.907806,229.922668 358.649689,228.125809 
	C358.174225,224.816132 355.357941,226.077057 353.431610,225.992889 
	C350.026428,225.844162 346.896606,225.497314 346.864349,221.077866 
	C346.845642,218.518005 345.938904,215.290298 349.224976,214.126328 
	C353.027740,212.779327 357.046936,212.428284 360.729462,214.774963 
	C361.760162,215.431763 362.126678,216.617996 362.069672,217.851730 
	C362.018738,218.954010 362.457916,220.355438 360.935547,220.791885 
	C359.371552,221.240250 359.120178,220.119904 358.745148,218.877228 
	C357.423431,214.497955 354.025269,216.210114 351.378021,216.817520 
	C349.584625,217.228989 350.075378,219.299881 350.216797,220.728058 
	C350.485809,223.444183 352.651733,222.906799 354.414856,222.965439 
	C361.492554,223.200836 363.106049,225.024429 362.036987,231.750381 
	C361.888275,232.685913 361.599487,233.857651 360.945099,234.410828 
	C357.630157,237.212936 353.622223,236.295578 349.983734,235.644791 
	C346.701599,235.057739 346.509521,232.078827 347.196991,228.925018 
z"/>
<path fill="#38C8DC" opacity="1.000000" stroke="none" 
	d="
M267.002747,254.044250 
	C265.043335,253.961716 263.546722,253.983932 262.052704,253.931595 
	C258.030304,253.790756 256.774231,251.533585 256.739624,247.714859 
	C256.704987,243.894485 257.958221,241.561417 261.936829,241.369873 
	C264.079010,241.266769 266.262512,241.328629 268.381226,241.635086 
	C270.300598,241.912704 271.799622,243.054153 271.995819,245.184250 
	C272.110809,246.432755 272.659058,248.089813 271.095337,248.716278 
	C269.250214,249.455475 269.128296,247.932846 268.705872,246.570740 
	C267.539673,242.810455 264.349884,244.299911 261.986206,244.515717 
	C259.808319,244.714554 260.022949,246.869247 260.187927,248.518021 
	C260.530548,251.941818 263.253113,250.949921 265.189026,250.917877 
	C269.463989,250.847137 272.383698,251.936325 272.141418,257.016693 
	C272.013031,259.708466 272.439392,262.868835 269.105499,263.575684 
	C265.463013,264.347992 261.520416,265.097168 258.092346,262.609772 
	C256.550354,261.490906 256.803284,259.660919 256.879730,258.004486 
	C256.920563,257.118927 257.261536,256.375977 258.300385,256.293976 
	C259.285278,256.216248 259.949646,256.732422 260.016754,257.668610 
	C260.412262,263.186279 264.950134,261.494049 267.081360,260.674561 
	C270.031342,259.540253 269.393250,256.472839 267.002747,254.044250 
z"/>
<path fill="#35BCCF" opacity="1.000000" stroke="none" 
	d="
M295.516052,236.021545 
	C292.284637,235.217819 291.053162,233.341309 291.083771,230.481247 
	C291.126404,226.499863 291.023468,222.515854 291.122375,218.536438 
	C291.234253,214.033966 294.349548,213.212936 297.994598,213.274307 
	C301.580170,213.334656 305.669708,212.590424 306.660889,217.674744 
	C306.900635,218.904587 307.184296,220.523651 305.444489,221.019760 
	C303.678284,221.523376 303.196960,220.399734 303.028076,218.822495 
	C302.627106,215.078430 299.648376,216.528809 297.605682,216.363403 
	C295.021912,216.154190 294.768097,218.013062 294.792480,220.009613 
	C294.826874,222.829681 294.683716,225.656845 294.839294,228.468643 
	C294.936249,230.221054 293.875519,233.033966 297.117981,232.899872 
	C299.302032,232.809555 302.856262,234.813446 303.110382,230.145691 
	C303.170197,229.046646 303.822113,228.174637 304.983032,228.274017 
	C306.431458,228.397980 306.773407,229.581360 306.735565,230.824844 
	C306.640869,233.938339 305.083496,235.813629 301.917053,236.031738 
	C299.935608,236.168228 297.937134,236.056747 295.516052,236.021545 
z"/>
<path fill="#37C3D6" opacity="1.000000" stroke="none" 
	d="
M360.981934,257.681549 
	C362.538300,252.893539 364.040863,248.491180 365.460938,244.062393 
	C366.030304,242.286758 366.980347,241.185471 368.979645,241.181259 
	C370.969727,241.177063 371.975739,242.253632 372.548645,244.024536 
	C374.338043,249.555817 376.204010,255.062592 377.955322,260.605713 
	C378.325012,261.775909 379.115417,263.390930 377.220825,263.964111 
	C375.393372,264.516998 375.116608,262.892700 374.695343,261.634491 
	C372.978485,256.507050 371.252258,251.382767 368.463623,246.155731 
	C366.914856,250.928955 365.477020,255.742874 363.750305,260.450806 
	C363.227081,261.877380 363.423889,264.906708 360.622162,263.821167 
	C358.436279,262.974213 360.181702,260.954803 360.386139,259.458374 
	C360.451935,258.976929 360.719696,258.523071 360.981934,257.681549 
z"/>
<path fill="#37C3D6" opacity="1.000000" stroke="none" 
	d="
M429.511597,235.896896 
	C426.390778,236.137405 426.741913,233.633301 426.190765,232.146790 
	C424.490875,227.561981 423.075562,222.871658 420.509125,218.198639 
	C418.810272,223.292206 417.125519,228.390533 415.402283,233.475861 
	C414.994995,234.677765 414.838562,236.444504 412.982300,236.004089 
	C410.641205,235.448608 411.725861,233.587524 412.116394,232.333160 
	C413.795502,226.940079 415.546448,221.565781 417.435638,216.242996 
	C418.605438,212.947067 422.777435,211.840652 423.730194,214.544342 
	C426.171143,221.471069 429.773956,228.127930 429.511597,235.896896 
z"/>
<path fill="#37C3D6" opacity="1.000000" stroke="none" 
	d="
M281.699768,214.269028 
	C283.909332,220.385757 285.926117,226.193176 287.789520,232.049423 
	C288.189148,233.305344 289.387238,235.157349 287.285706,235.910172 
	C285.122833,236.684952 285.008636,234.538010 284.560638,233.239746 
	C282.845276,228.268890 281.214600,223.268829 279.245850,217.359848 
	C276.505737,222.713150 275.573547,227.709305 273.782410,232.376007 
	C273.231049,233.812500 273.457520,236.810074 270.691620,235.851105 
	C268.429474,235.066788 269.957733,232.950867 270.384094,231.543747 
	C271.876923,226.617050 273.603729,221.761780 275.144592,216.848938 
	C276.206909,213.461792 278.067413,212.120239 281.699768,214.269028 
z"/>
<path fill="#17BBE7" opacity="1.000000" stroke="none" 
	d="
M202.700836,284.952301 
	C203.033539,284.935059 203.510620,284.918182 203.744354,284.966644 
	C207.721405,286.727722 211.915482,287.815308 213.749466,292.518494 
	C213.005875,294.842926 211.572067,295.902863 209.645096,296.188232 
	C202.586533,297.233582 195.811798,296.813080 189.895386,292.163696 
	C186.252640,289.301056 186.444702,286.713318 190.782440,284.044128 
	C193.121414,283.597443 195.195526,283.498627 197.642242,283.547546 
	C199.328232,284.590454 200.721680,285.212189 202.700836,284.952301 
z"/>
<path fill="#17D2EE" opacity="1.000000" stroke="none" 
	d="
M190.625092,283.570435 
	C188.149765,288.089813 188.554428,290.001343 193.839508,292.800873 
	C200.025848,296.077789 206.390045,296.355408 212.804626,292.274048 
	C216.843445,290.850708 218.627960,294.231750 221.385315,296.085602 
	C221.477188,296.691650 221.453827,296.940704 221.181458,297.470520 
	C213.645691,297.787750 206.355194,297.705353 199.074387,297.933105 
	C196.882233,298.001678 195.337692,296.996918 193.731659,296.002991 
	C187.660919,292.245850 181.655167,288.383728 175.985611,283.444641 
	C180.724686,283.444641 185.463776,283.444641 190.625092,283.570435 
z"/>
<path fill="#38C8DC" opacity="1.000000" stroke="none" 
	d="
M310.522156,223.076416 
	C310.522278,222.266541 310.522369,221.933899 310.522430,221.601257 
	C310.523682,213.282272 312.917664,211.449738 321.260162,213.316635 
	C322.318848,213.553558 323.262939,213.810150 323.087677,215.121780 
	C322.944672,216.192352 321.994690,216.158661 321.175873,216.247742 
	C318.895905,216.495789 315.586060,215.180389 314.569122,216.917419 
	C313.387390,218.935989 314.083984,222.060425 313.988892,224.705734 
	C313.953064,225.702362 314.123688,226.725311 313.958710,227.695175 
	C313.232422,231.964661 314.712372,233.929749 319.228607,233.084244 
	C320.186249,232.904968 321.219116,233.063019 322.210419,233.147095 
	C323.145416,233.226410 323.752197,233.785614 323.728119,234.745834 
	C323.709198,235.502228 323.127838,235.933975 322.412170,235.942856 
	C319.088623,235.984116 315.763062,236.037155 312.441101,235.959747 
	C310.554108,235.915802 310.584839,234.334854 310.557922,233.033417 
	C310.492584,229.874603 310.527527,226.713699 310.522156,223.076416 
z"/>
<path fill="#35BCCF" opacity="1.000000" stroke="none" 
	d="
M461.124023,225.972534 
	C461.124023,224.324219 461.123962,223.160080 461.124023,221.995941 
	C461.124298,213.194382 463.374695,211.402313 472.004181,213.297531 
	C473.009216,213.518280 474.086914,213.672806 473.954956,215.016495 
	C473.818665,216.404129 472.614227,216.212280 471.669891,216.275803 
	C470.841858,216.331497 469.990753,216.405182 469.179047,216.280624 
	C465.648621,215.738922 464.364380,217.246933 464.797058,220.699692 
	C465.002228,222.337006 464.831665,224.021378 464.831757,225.684433 
	C464.832062,232.428024 464.831207,232.439346 471.633911,233.013306 
	C472.783325,233.110260 474.278809,232.855789 474.385345,234.415756 
	C474.529114,236.521210 472.709595,236.059631 471.505768,236.051895 
	C458.933411,235.971268 461.386536,237.451477 461.124023,225.972534 
z"/>
<path fill="#38C8DC" opacity="1.000000" stroke="none" 
	d="
M320.834167,260.389832 
	C320.832214,255.130783 321.020416,250.311966 320.768066,245.516342 
	C320.592316,242.176727 321.863922,240.928284 325.048065,241.308258 
	C325.211517,241.327759 325.386108,241.279633 325.544250,241.314346 
	C328.158173,241.887680 332.863098,239.901337 333.023926,242.619263 
	C333.220428,245.939499 328.822693,243.812302 326.495789,244.176117 
	C324.481079,244.491135 324.063629,245.371552 324.120331,247.091782 
	C324.185883,249.079468 324.131317,251.071045 324.131165,253.060944 
	C324.130585,260.331116 324.130371,260.337006 331.238861,261.052002 
	C332.365936,261.165375 333.800507,260.919647 333.910767,262.529480 
	C334.035675,264.353149 332.472443,263.997528 331.411865,264.021698 
	C328.760193,264.082123 326.103943,263.969879 323.453522,264.053192 
	C321.073273,264.128021 320.752655,262.687592 320.834167,260.389832 
z"/>
<path fill="#38C8DC" opacity="1.000000" stroke="none" 
	d="
M207.831329,229.663803 
	C207.831833,225.220856 208.001923,221.232803 207.778549,217.266891 
	C207.603653,214.161606 208.837296,213.079788 211.799103,213.283340 
	C214.109512,213.442154 216.438416,213.312103 218.756958,213.381927 
	C219.632980,213.408325 220.391510,213.868927 220.419815,214.837952 
	C220.450760,215.897018 219.605591,216.102997 218.739944,216.227020 
	C216.322952,216.573303 212.659439,215.067245 211.734039,217.021683 
	C210.501846,219.624054 211.231369,223.158859 211.135681,226.293625 
	C211.105362,227.287338 211.258636,228.302551 211.107758,229.273727 
	C210.618866,232.420654 212.002274,233.490891 214.993317,233.074783 
	C215.968918,232.939072 216.982361,233.008942 217.973495,233.068329 
	C219.218384,233.142868 220.965073,232.729965 220.888672,234.750534 
	C220.823975,236.460770 219.228195,235.963882 218.179932,236.024277 
	C216.692886,236.109955 215.164352,235.846268 213.711380,236.084610 
	C208.847397,236.882462 206.974960,234.894150 207.831329,229.663803 
z"/>
<path fill="#15C4DF" opacity="1.000000" stroke="none" 
	d="
M260.786560,283.971741 
	C269.092072,287.112915 276.136749,292.320282 283.513885,297.328278 
	C274.093872,296.901184 264.764313,299.762024 255.320282,296.197632 
	C254.139267,294.923920 254.578873,294.049927 255.675476,293.019104 
	C259.035583,291.191284 262.361908,292.997406 266.024506,292.292450 
	C264.100647,290.011963 261.354156,289.451599 260.131470,286.793121 
	C259.923920,285.651489 260.085907,284.932037 260.786560,283.971741 
z"/>
<path fill="#10A4B4" opacity="1.000000" stroke="none" 
	d="
M386.272003,282.067932 
	C385.994843,281.465454 385.977783,281.084900 385.955688,280.418396 
	C392.514221,283.020111 398.256226,287.302612 404.179260,291.218506 
	C408.674927,294.190735 413.188812,295.497589 418.599213,295.451111 
	C441.058105,295.258087 463.520050,295.425415 486.418793,295.615845 
	C487.002899,295.945496 487.149078,296.119781 487.160278,296.607513 
	C466.739716,297.016235 446.435364,296.622192 426.176025,297.400818 
	C415.039093,297.828918 405.262543,295.978790 396.578827,288.774231 
	C393.533112,286.247314 389.898041,284.430786 386.272003,282.067932 
z"/>
<path fill="#38C8DC" opacity="1.000000" stroke="none" 
	d="
M308.765015,247.028107 
	C308.694183,243.565186 306.393402,244.459457 304.745453,244.236694 
	C303.924286,244.125687 303.001831,244.125885 302.921478,243.009048 
	C302.823547,241.647751 303.805145,241.351501 304.858582,241.341965 
	C308.513519,241.308853 312.169220,241.305542 315.824036,241.345093 
	C316.814331,241.355804 317.929504,241.485626 317.954254,242.837250 
	C317.980835,244.290878 316.765839,244.353409 315.837585,244.210739 
	C311.953644,243.613800 312.010864,246.048401 312.083862,248.743118 
	C312.182831,252.395828 312.230469,256.059296 312.049805,259.705719 
	C311.974060,261.234344 313.189423,264.030273 310.337799,263.892212 
	C307.694977,263.764191 308.903015,261.039551 308.833069,259.471558 
	C308.655365,255.491745 308.772156,251.498795 308.765015,247.028107 
z"/>
<path fill="#17D2EE" opacity="1.000000" stroke="none" 
	d="
M235.682251,191.247162 
	C242.962509,190.933075 249.924271,190.847504 256.886200,190.830750 
	C258.114716,190.827789 259.692413,190.477341 259.801727,192.560440 
	C259.888000,194.204727 259.254852,195.004013 257.533844,194.991867 
	C251.729065,194.950897 245.923874,194.971237 240.118881,194.956696 
	C238.392578,194.952362 237.653549,193.434845 236.252518,192.274994 
	C235.786591,191.837326 235.575195,191.668228 235.682251,191.247162 
z"/>
<path fill="#3BD3E7" opacity="1.000000" stroke="none" 
	d="
M203.009521,222.097595 
	C203.007294,226.214371 203.022644,229.850082 202.992340,233.485397 
	C202.982971,234.608612 203.137177,235.929199 201.408066,235.977859 
	C199.648621,236.027390 199.738678,234.699844 199.733704,233.565842 
	C199.707642,227.616928 199.717804,221.667831 199.727081,215.718796 
	C199.729034,214.465668 200.012421,213.262268 201.586502,213.428955 
	C202.767075,213.553986 203.016617,214.588837 203.006424,215.667389 
	C202.987671,217.650192 203.006409,219.633377 203.009521,222.097595 
z"/>
<path fill="#3BD3E7" opacity="1.000000" stroke="none" 
	d="
M409.008728,232.614258 
	C408.853302,234.276932 409.420807,235.941040 407.321533,235.964050 
	C405.549072,235.983490 405.744781,234.568161 405.737427,233.474197 
	C405.698456,227.685333 405.708038,221.896072 405.721558,216.106979 
	C405.724243,214.960922 405.624023,213.532410 407.208588,213.454224 
	C409.171997,213.357361 408.999512,214.966125 409.002533,216.277344 
	C409.014801,221.570267 409.008698,226.863235 409.008728,232.614258 
z"/>
<path fill="#15C4DF" opacity="1.000000" stroke="none" 
	d="
M236.328781,284.324036 
	C242.819397,282.026550 249.137238,283.889282 255.728821,283.514771 
	C256.399231,284.096130 256.580017,284.582031 256.606842,285.488190 
	C256.415833,286.094666 256.284241,286.316040 255.855118,286.778839 
	C252.266052,287.324921 249.493073,288.980865 246.271423,290.516693 
	C241.900253,289.576050 238.211716,288.069000 236.328781,284.324036 
z"/>
<path fill="#3BD3E7" opacity="1.000000" stroke="none" 
	d="
M278.984009,241.469330 
	C281.141846,248.396698 279.780151,255.317078 280.136444,262.175171 
	C280.191376,263.232300 279.716766,264.114868 278.383148,263.981598 
	C277.370361,263.880402 276.985565,263.171356 276.987549,262.294495 
	C277.002441,255.694199 277.027069,249.093521 277.153656,242.494965 
	C277.161163,242.103836 278.074554,241.730087 278.984009,241.469330 
z"/>
<path fill="#15D2E7" opacity="1.000000" stroke="none" 
	d="
M168.134949,251.647537 
	C165.774918,253.712051 163.676498,253.676254 161.765396,251.656250 
	C160.482635,250.300385 160.488571,248.608673 161.228745,247.018707 
	C162.109177,245.127365 163.852539,244.334320 165.758041,244.855362 
	C169.296112,245.822739 169.915024,248.223404 168.134949,251.647537 
z"/>
<path fill="#15CFE3" opacity="1.000000" stroke="none" 
	d="
M87.161819,326.860382 
	C90.650688,327.036041 91.978203,328.945251 91.651741,331.826080 
	C91.426910,333.809998 90.015640,334.996490 87.847618,335.065857 
	C85.821907,335.130707 84.149353,334.561584 83.558472,332.468506 
	C82.739830,329.568726 83.853989,327.647400 87.161819,326.860382 
z"/>
<path fill="#15CFE3" opacity="1.000000" stroke="none" 
	d="
M78.666840,171.848083 
	C78.927521,168.416214 80.755989,167.107651 83.691223,167.472076 
	C85.717789,167.723694 86.922691,169.034775 87.042961,171.159241 
	C87.174210,173.477463 86.065865,175.060013 83.853935,175.519806 
	C81.197708,176.071960 79.365372,174.946426 78.666840,171.848083 
z"/>
<path fill="#15CFE3" opacity="1.000000" stroke="none" 
	d="
M167.740631,208.209518 
	C167.582611,209.915176 167.832199,211.272720 167.479645,212.449921 
	C166.850723,214.549881 165.245987,215.736725 162.979309,215.410538 
	C160.995499,215.125061 159.701462,213.811295 159.399948,211.829712 
	C159.044571,209.494263 160.425583,207.899307 162.455704,207.408722 
	C164.171005,206.994217 166.147781,206.624023 167.740631,208.209518 
z"/>
<path fill="#15D2E7" opacity="1.000000" stroke="none" 
	d="
M487.317200,297.075562 
	C487.015045,296.726685 487.004791,296.532471 486.925629,296.054749 
	C487.509277,295.035065 488.128906,294.266205 488.820770,293.569000 
	C490.731415,291.643677 492.861572,291.221741 494.940857,293.165833 
	C496.622833,294.738495 496.691742,296.800385 495.333252,298.549683 
	C493.622131,300.753052 491.417786,300.796204 489.256073,299.079102 
	C488.619293,298.573303 488.153351,297.852509 487.317200,297.075562 
z"/>
<path fill="#05363D" opacity="1.000000" stroke="none" 
	d="
M221.325470,296.959473 
	C218.777344,295.212128 216.216599,293.723724 213.333374,292.102356 
	C210.781631,288.933136 207.114639,287.856476 204.148499,285.303680 
	C204.840607,284.354431 205.703140,283.693787 206.895386,283.099701 
	C206.563751,285.569916 208.815384,285.757568 209.997452,286.549469 
	C214.911224,289.841248 219.934738,292.969238 225.097748,296.447021 
	C224.417038,297.144196 223.556549,297.551636 222.339462,297.973755 
	C221.693741,297.788971 221.473633,297.529510 221.325470,296.959473 
z"/>
<path fill="#16BFE0" opacity="1.000000" stroke="none" 
	d="
M246.035400,290.078857 
	C247.714783,286.269226 250.805145,285.832733 254.580841,286.006348 
	C256.405365,288.298676 257.642853,290.647827 257.216370,293.721375 
	C256.163757,294.157867 255.477051,294.523651 255.088043,295.670837 
	C254.843872,295.977783 254.676331,295.990234 254.265320,295.937683 
	C251.368179,294.061066 247.871628,293.480865 246.035400,290.078857 
z"/>
<path fill="#05363D" opacity="1.000000" stroke="none" 
	d="
M245.678650,289.643677 
	C248.611038,291.567322 251.218719,293.404999 253.924133,295.557709 
	C253.986023,296.106964 253.950195,296.341248 253.844681,296.924194 
	C250.029633,295.308258 246.912003,292.248627 242.412018,290.931976 
	C238.542480,291.087982 236.074738,289.493469 234.249664,286.164917 
	C233.986618,285.483978 233.912277,285.107910 233.805450,284.446045 
	C234.427841,284.182861 235.082718,284.205505 236.226257,284.282104 
	C239.594589,286.076660 242.474274,287.817200 245.678650,289.643677 
z"/>
<path fill="#10A4B4" opacity="1.000000" stroke="none" 
	d="
M235.541412,190.893097 
	C235.991638,191.163727 235.982590,191.332245 235.985779,191.753601 
	C221.939117,192.006439 207.880234,192.006439 193.821365,192.006439 
	C193.821655,191.601273 193.821945,191.196121 193.822220,190.790955 
	C207.575531,190.790955 221.328827,190.790955 235.541412,190.893097 
z"/>
<path fill="#05363D" opacity="1.000000" stroke="none" 
	d="
M457.032196,283.427246 
	C457.247986,281.821259 456.530396,279.918976 458.421936,279.872040 
	C459.785309,279.838196 459.719208,281.516541 459.830536,282.651703 
	C459.862701,282.979645 459.912140,283.324127 459.849274,283.640259 
	C459.280762,286.500122 461.508057,291.282532 458.155090,291.716614 
	C456.037720,291.990753 457.603210,286.617401 457.032196,283.427246 
z"/>
<path fill="#05363D" opacity="1.000000" stroke="none" 
	d="
M468.898132,281.732605 
	C469.257050,279.809021 470.475342,279.066895 470.719360,280.907898 
	C471.237946,284.820312 471.599640,288.877930 470.094055,293.895935 
	C468.095673,289.393890 469.209137,285.683533 468.898132,281.732605 
z"/>
<path fill="#0C828E" opacity="1.000000" stroke="none" 
	d="
M480.015778,285.177979 
	C480.015778,283.303436 480.015778,281.838745 480.015778,280.374084 
	C480.279633,280.366791 480.543457,280.359528 480.807312,280.352264 
	C480.807312,284.088257 480.807312,287.824249 480.807312,291.560272 
	C480.543457,291.576630 480.279633,291.592987 480.015778,291.609344 
	C480.015778,289.602173 480.015778,287.594971 480.015778,285.177979 
z"/>
<path fill="#09626C" opacity="1.000000" stroke="none" 
	d="
M446.297028,287.684784 
	C446.498810,285.060089 445.822571,282.741547 447.608276,280.649902 
	C447.608276,284.205750 447.608276,287.761566 447.608276,291.372009 
	C445.704376,290.840302 446.570282,289.243103 446.297028,287.684784 
z"/>
<path fill="#35BCCF" opacity="1.000000" stroke="none" 
	d="
M467.248962,223.914536 
	C468.344086,221.825867 469.686432,221.211700 471.269989,222.787796 
	C472.450409,223.962646 472.171295,225.304459 470.804138,226.087341 
	C468.867798,227.196228 467.736969,226.205780 467.248962,223.914536 
z"/>
<path fill="#35BCCF" opacity="1.000000" stroke="none" 
	d="
M321.052368,223.922272 
	C320.748230,226.453964 319.424713,227.089890 317.615417,226.116806 
	C316.235260,225.374496 316.124329,223.851685 317.156921,222.785660 
	C318.633392,221.261414 320.037140,221.736816 321.052368,223.922272 
z"/>
<path fill="#37C3D6" opacity="1.000000" stroke="none" 
	d="
M218.242401,223.931046 
	C217.933731,226.379684 216.683685,227.082123 214.857513,226.094498 
	C213.460663,225.339066 213.425217,223.819412 214.411942,222.799133 
	C215.854691,221.307281 217.276642,221.654526 218.242401,223.931046 
z"/>
<path fill="#37C3D6" opacity="1.000000" stroke="none" 
	d="
M326.905945,252.639496 
	C327.124786,250.145081 328.386841,249.411179 330.216339,250.334198 
	C331.575806,251.020111 331.751617,252.615585 330.794769,253.636520 
	C329.469299,255.050766 327.951843,254.958801 326.905945,252.639496 
z"/>
<path fill="#38C8DC" opacity="1.000000" stroke="none" 
	d="
M280.766113,230.218781 
	C279.173553,231.394608 277.756439,231.755783 277.040985,229.761002 
	C276.580780,228.477875 277.226898,227.317200 278.546997,227.145416 
	C280.466034,226.895706 281.204315,228.052719 280.766113,230.218781 
z"/>
<path fill="#38C8DC" opacity="1.000000" stroke="none" 
	d="
M418.953735,228.825989 
	C419.944550,226.852402 421.212433,226.410065 422.537109,227.893723 
	C423.394348,228.853821 423.362427,230.197418 422.089691,230.822617 
	C420.513153,231.597092 419.170959,231.288483 418.953735,228.825989 
z"/>
<path fill="#38C8DC" opacity="1.000000" stroke="none" 
	d="
M368.248535,259.060547 
	C366.247833,257.412933 366.513519,256.054657 368.480316,255.166183 
	C369.513916,254.699280 370.528778,255.367783 370.837524,256.377380 
	C371.409027,258.246338 370.504333,259.178009 368.248535,259.060547 
z"/>
<path fill="#09626C" opacity="1.000000" stroke="none" 
	d="
M441.351074,288.103943 
	C440.462494,286.552856 440.203125,285.164673 441.630859,283.584778 
	C442.831787,285.291351 443.269867,286.722656 441.351074,288.103943 
z"/>
<path fill="#05363D" opacity="1.000000" stroke="none" 
	d="
M453.618408,284.068329 
	C453.942230,285.716614 454.673035,287.305176 453.013275,288.204102 
	C452.378815,288.547729 451.846191,287.751617 451.702881,287.114502 
	C451.354279,285.564575 450.568512,283.712524 453.618408,284.068329 
z"/>
<path fill="#10A4B4" opacity="1.000000" stroke="none" 
	d="
M414.010406,288.418457 
	C413.934845,289.778412 413.859619,290.739746 413.784393,291.701080 
	C413.618713,291.695038 413.453033,291.688965 413.287354,291.682892 
	C413.287354,287.861481 413.287354,284.040039 413.287354,280.218597 
	C413.528473,280.216156 413.769623,280.213715 414.010742,280.211273 
	C414.010742,282.814117 414.010742,285.416992 414.010406,288.418457 
z"/>
<path fill="#0C828E" opacity="1.000000" stroke="none" 
	d="
M435.831726,285.969757 
	C435.831573,283.945526 435.831573,282.352692 435.831573,280.759827 
	C437.410797,284.344574 436.910309,287.948822 435.831879,291.634705 
	C435.831879,289.890198 435.831879,288.145660 435.831726,285.969757 
z"/>
<path fill="#16C1E2" opacity="1.000000" stroke="none" 
	d="
M256.211121,286.356689 
	C256.019287,285.466095 256.043365,284.945587 256.095551,284.035339 
	C257.482971,283.560059 258.842255,283.474548 260.593933,283.514862 
	C260.992371,284.476990 260.998444,285.313293 261.005920,286.567688 
	C259.393158,288.445068 257.889435,287.951630 256.211121,286.356689 
z"/>
<path fill="#09626C" opacity="1.000000" stroke="none" 
	d="
M418.308350,285.391296 
	C418.613281,284.428680 419.004608,283.172577 419.705414,284.356232 
	C420.316620,285.388458 420.754303,287.395599 419.184357,287.941132 
	C418.188843,288.287140 418.428070,286.565613 418.308350,285.391296 
z"/>
<path fill="#17D2EE" opacity="1.000000" stroke="none" 
	d="
M202.836365,284.649475 
	C201.224823,286.145538 199.469620,286.924744 198.074097,284.011230 
	C199.679230,283.067932 201.195908,283.462158 202.836365,284.649475 
z"/>
<path fill="#05363D" opacity="1.000000" stroke="none" 
	d="
M462.932739,286.009979 
	C463.081177,284.906158 462.892029,283.797424 464.042145,283.855530 
	C465.130157,283.910492 465.047302,284.989410 465.036957,285.751587 
	C465.024689,286.654633 465.356415,287.956573 464.050354,288.138000 
	C462.915558,288.295654 463.094269,287.107605 462.932739,286.009979 
z"/>
<path fill="#05363D" opacity="1.000000" stroke="none" 
	d="
M474.466522,284.070831 
	C477.284058,284.855988 475.685211,286.581757 475.932281,288.678802 
	C473.451508,287.313171 473.966858,285.769257 474.466522,284.070831 
z"/>
<path fill="#09626C" opacity="1.000000" stroke="none" 
	d="
M486.756531,284.228516 
	C487.152008,285.721436 487.298737,286.960541 486.240601,288.673370 
	C485.368866,286.651093 484.566345,285.261932 486.756531,284.228516 
z"/>
<path fill="#09626C" opacity="1.000000" stroke="none" 
	d="
M425.336792,282.633972 
	C425.194305,285.656555 425.796661,288.322052 424.083344,290.931885 
	C424.083344,287.820221 423.648315,284.620605 424.252655,281.631134 
	C424.594482,279.940247 424.972961,281.878876 425.336792,282.633972 
z"/>
<path fill="#15CFE3" opacity="1.000000" stroke="none" 
	d="
M94.645645,181.016876 
	C93.768929,182.055267 92.566750,182.344223 91.175293,180.969528 
	C92.119080,180.791458 93.225510,180.845474 94.645645,181.016876 
z"/>
<path fill="#0C828E" opacity="1.000000" stroke="none" 
	d="
M430.272217,284.173462 
	C431.371796,285.320068 431.255890,286.679321 430.522797,288.144653 
	C429.466614,286.926788 429.913422,285.639435 430.272217,284.173462 
z"/>
<path fill="#0C828E" opacity="1.000000" stroke="none" 
	d="
M455.015442,186.570618 
	C454.731445,186.155182 454.790253,185.851303 454.946350,185.332092 
	C455.324280,185.209183 455.934387,185.214951 456.046112,185.453827 
	C456.357605,186.119736 455.899384,186.500504 455.015442,186.570618 
z"/>
<path fill="#10A4B4" opacity="1.000000" stroke="none" 
	d="
M168.774780,280.154602 
	C169.098328,280.471527 169.147934,280.793182 169.169769,281.355103 
	C167.961853,281.545593 168.044479,280.934601 168.774780,280.154602 
z"/>
<path fill="#15CFE3" opacity="1.000000" stroke="none" 
	d="
M188.716309,185.200577 
	C189.007401,185.574768 189.008957,185.937164 189.005295,186.571289 
	C189.000076,186.843033 188.793411,187.226288 188.589508,187.302612 
	C188.130646,187.300415 187.875671,187.221893 187.434036,186.789413 
	C187.640503,186.019882 188.033646,185.604324 188.716309,185.200577 
z"/>
<path fill="#15CFE3" opacity="1.000000" stroke="none" 
	d="
M183.264481,191.984253 
	C183.287888,192.711639 183.109695,192.979248 182.597427,193.269531 
	C182.112442,193.295990 181.854752,193.228668 181.394562,192.816986 
	C181.450226,192.154449 181.708389,191.836304 182.225632,191.350037 
	C182.713013,191.319809 182.941315,191.457687 183.264481,191.984253 
z"/>
<path fill="#10A4B4" opacity="1.000000" stroke="none" 
	d="
M221.195587,296.947327 
	C221.579727,296.952484 221.821350,297.204468 222.022919,297.722412 
	C221.800919,297.979401 221.618973,297.970428 221.184753,297.856323 
	C220.972672,297.565521 221.012863,297.379822 221.195587,296.947327 
z"/>
<path fill="#15CFE3" opacity="1.000000" stroke="none" 
	d="
M170.255432,204.982971 
	C170.284485,205.709915 170.105850,205.977783 169.592377,206.267700 
	C169.113571,206.284607 168.862595,206.208069 168.384186,205.810349 
	C168.414642,205.168228 168.672531,204.847305 169.194702,204.362274 
	C169.690933,204.330536 169.922867,204.462891 170.255432,204.982971 
z"/>
<path fill="#15CFE3" opacity="1.000000" stroke="none" 
	d="
M169.680176,204.493652 
	C169.618179,203.917343 169.810089,203.661041 170.247040,203.315979 
	C170.691742,203.334412 170.924133,203.466141 171.257904,203.985565 
	C171.282761,204.713303 171.101212,204.982544 170.585358,205.275818 
	C170.204498,205.176834 170.052917,204.982986 169.680176,204.493652 
z"/>
<path fill="#15CFE3" opacity="1.000000" stroke="none" 
	d="
M170.681305,203.497650 
	C170.616348,202.919464 170.808136,202.662155 171.247467,202.317062 
	C171.699158,202.341187 171.938049,202.478973 172.287994,203.015228 
	C172.302246,203.745285 172.109116,204.005341 171.589478,204.283569 
	C171.207260,204.179688 171.055252,203.986145 170.681305,203.497650 
z"/>
<path fill="#15CFE3" opacity="1.000000" stroke="none" 
	d="
M173.260925,201.990265 
	C173.292557,202.718262 173.119507,202.991241 172.621155,203.306259 
	C172.240433,203.213669 172.081802,203.013626 171.691711,202.508484 
	C171.616318,201.920273 171.807434,201.663239 172.245911,201.318695 
	C172.691986,201.336960 172.925751,201.468826 173.260925,201.990265 
z"/>
<path fill="#15CFE3" opacity="1.000000" stroke="none" 
	d="
M188.103058,187.140640 
	C188.302338,187.716400 188.116150,187.981659 187.597397,188.267212 
	C187.064362,188.344147 186.760986,188.328583 186.356522,187.868698 
	C186.361023,187.107895 186.554535,186.860046 187.041656,186.558136 
	C187.438400,186.591080 187.629440,186.746719 188.103058,187.140640 
z"/>
<path fill="#15CFE3" opacity="1.000000" stroke="none" 
	d="
M185.390839,188.791473 
	C185.400726,188.187225 185.610992,187.933151 186.038330,187.551743 
	C186.442032,187.578796 186.628662,187.733215 187.091522,188.123688 
	C187.294830,188.701477 187.114380,188.971298 186.597214,189.264618 
	C186.109116,189.287231 185.850174,189.214447 185.390839,188.791473 
z"/>
<path fill="#15CFE3" opacity="1.000000" stroke="none" 
	d="
M174.257111,200.985458 
	C174.283493,201.716507 174.103119,201.985764 173.589981,202.282227 
	C173.209579,202.185654 173.056808,201.991470 172.681137,201.501205 
	C172.617569,200.921890 172.809235,200.662552 173.244339,200.308167 
	C173.688797,200.324203 173.922134,200.459152 174.257111,200.985458 
z"/>
<path fill="#15CFE3" opacity="1.000000" stroke="none" 
	d="
M186.076050,189.127258 
	C186.294449,189.701416 186.113785,189.971100 185.596924,190.264450 
	C185.109253,190.285568 184.850708,190.211288 184.394653,189.785156 
	C184.297623,189.112000 184.492615,188.865463 184.986298,188.567474 
	C185.388321,188.592377 185.586197,188.743439 186.076050,189.127258 
z"/>
<path fill="#15CFE3" opacity="1.000000" stroke="none" 
	d="
M183.399445,190.804138 
	C183.283493,190.131775 183.479431,189.874863 183.988052,189.565125 
	C184.393829,189.585709 184.590530,189.738113 185.077515,190.125183 
	C185.294434,190.701431 185.113907,190.971359 184.597076,191.265259 
	C184.114532,191.287460 183.861145,191.214035 183.399445,190.804138 
z"/>
<path fill="#15CFE3" opacity="1.000000" stroke="none" 
	d="
M182.695496,191.485443 
	C182.565475,190.959167 182.699921,190.775742 183.039612,190.549683 
	C183.391113,190.611450 183.591095,190.755234 184.079483,191.129944 
	C184.185287,191.632874 184.002655,191.904877 183.589676,192.274902 
	C183.208313,192.178268 183.057312,191.983627 182.695496,191.485443 
z"/>
<path fill="#15CFE3" opacity="1.000000" stroke="none" 
	d="
M175.258453,199.987946 
	C175.283112,200.716827 175.102234,200.986221 174.587402,201.280853 
	C174.205963,201.180588 174.053162,200.984360 173.677917,200.488708 
	C173.601013,199.898682 173.790436,199.640289 174.241135,199.309662 
	C174.691788,199.336609 174.925018,199.467911 175.258453,199.987946 
z"/>
<path fill="#15CFE3" opacity="1.000000" stroke="none" 
	d="
M176.261169,198.989441 
	C176.284683,199.716629 176.102295,199.985657 175.587585,200.280655 
	C175.206573,200.183105 175.054443,199.989487 174.680420,199.500580 
	C174.618362,198.924759 174.810532,198.668503 175.246979,198.322357 
	C175.692169,198.339249 175.925446,198.470322 176.261169,198.989441 
z"/>
<path fill="#15CFE3" opacity="1.000000" stroke="none" 
	d="
M175.682144,198.502777 
	C175.616653,197.925262 175.808777,197.668015 176.247772,197.321991 
	C176.699677,197.344742 176.939102,197.481979 177.290344,198.017792 
	C177.304260,198.746994 177.111191,199.006943 176.593292,199.286850 
	C176.210876,199.184128 176.058136,198.990768 175.682144,198.502777 
z"/>
<path fill="#15CFE3" opacity="1.000000" stroke="none" 
	d="
M178.260941,196.990509 
	C178.292953,197.717926 178.120605,197.991226 177.623642,198.307922 
	C177.243042,198.216553 177.083923,198.016739 176.692535,197.512207 
	C176.617096,196.924866 176.808456,196.667923 177.246307,196.322449 
	C177.692108,196.339264 177.925903,196.470337 178.260941,196.990509 
z"/>
<path fill="#15CFE3" opacity="1.000000" stroke="none" 
	d="
M179.256470,195.984283 
	C179.284576,196.714844 179.103912,196.984543 178.590088,197.281647 
	C178.209488,197.185959 178.056778,196.992310 177.681183,196.503418 
	C177.618454,195.925705 177.809998,195.666428 178.243256,195.310165 
	C178.686722,195.324646 178.919861,195.459290 179.256470,195.984283 
z"/>
<path fill="#15CFE3" opacity="1.000000" stroke="none" 
	d="
M178.677002,195.488571 
	C178.600601,194.898575 178.789795,194.637741 179.237091,194.297272 
	C179.686157,194.322296 179.919266,194.457550 180.255981,194.983551 
	C180.284439,195.714600 180.103683,195.984100 179.588654,196.278717 
	C179.206787,196.178802 179.053619,195.982971 178.677002,195.488571 
z"/>
<path fill="#15CFE3" opacity="1.000000" stroke="none" 
	d="
M179.676483,194.486298 
	C179.605972,193.892014 179.800858,193.627945 180.260712,193.288757 
	C180.706253,193.325058 180.928802,193.467422 181.254654,193.992340 
	C181.283264,194.715073 181.102859,194.984421 180.588165,195.278641 
	C180.206390,195.178070 180.053162,194.981812 179.676483,194.486298 
z"/>
<path fill="#15CFE3" opacity="1.000000" stroke="none" 
	d="
M169.066040,206.138382 
	C168.884338,206.817490 168.665771,207.864594 167.699036,207.232147 
	C167.481674,207.089966 167.558746,206.497711 167.828522,205.800903 
	C168.360352,205.631317 168.563934,205.773468 169.066040,206.138382 
z"/>
<path fill="#15CFE3" opacity="1.000000" stroke="none" 
	d="
M182.081253,193.133179 
	C182.186462,193.635162 182.002808,193.907013 181.588547,194.276886 
	C181.206741,194.180267 181.055527,193.985626 180.694031,193.486847 
	C180.564758,192.960251 180.699600,192.777496 181.040146,192.553528 
	C181.392151,192.616089 181.592255,192.759552 182.081253,193.133179 
z"/>
<path fill="#011012" opacity="1.000000" stroke="none" 
	d="
M150.999786,242.484985 
	C154.304611,263.393127 148.047440,281.464996 134.004181,296.967682 
	C123.565933,308.490723 110.343826,315.001556 94.750526,317.656067 
	C94.252815,313.305206 92.307388,312.030609 87.584618,312.160553 
	C56.726578,313.009705 32.281178,293.813354 25.565004,263.651093 
	C24.733192,259.915436 23.266726,258.923492 19.452709,259.975037 
	C13.928223,223.841537 40.152267,189.200150 76.009346,185.259995 
	C76.361031,185.382980 76.343163,185.707382 76.474907,185.802429 
	C78.055031,186.954041 78.357849,189.186813 80.711334,189.794708 
	C96.023331,189.820099 109.885773,193.346329 122.035995,202.605347 
	C133.732178,211.518372 141.090530,223.204315 144.922501,237.675751 
	C146.356415,239.569824 147.039001,241.729416 149.769379,242.154343 
	C150.302078,242.430237 150.539948,242.528885 150.999786,242.484985 
z"/>
<path fill="#15CCE0" opacity="1.000000" stroke="none" 
	d="
M149.938019,241.943909 
	C146.350632,244.084427 145.140488,242.241211 145.086884,238.384216 
	C147.336441,238.363129 148.586929,239.963013 149.938019,241.943909 
z"/>
<path fill="#15CFE3" opacity="1.000000" stroke="none" 
	d="
M80.936134,189.638123 
	C77.511391,191.586182 76.655006,189.659882 76.593857,186.290466 
	C78.290054,186.702805 80.254318,187.156052 80.936134,189.638123 
z"/>
<path fill="#17BBE7" opacity="1.000000" stroke="none" 
	d="
M233.776184,286.071045 
	C236.930847,286.821259 239.716125,287.932251 241.935974,290.570618 
	C238.434494,295.041229 225.893692,295.196472 222.054871,291.154510 
	C221.157150,290.209290 220.948792,289.129059 221.373154,287.938019 
	C221.819778,286.684448 222.868866,286.104126 224.088242,286.100403 
	C227.222397,286.090820 230.356979,286.212738 233.776184,286.071045 
z"/>
<path fill="#000203" opacity="1.000000" stroke="none" 
	d="
M378.296326,219.054138 
	C378.324402,222.357574 378.221497,225.174500 378.360779,227.979385 
	C378.518280,231.152283 378.223602,233.235199 373.990906,233.167496 
	C369.978882,233.103287 369.826050,231.100250 369.968109,228.174591 
	C370.088318,225.699570 369.949463,223.213058 370.008087,220.733597 
	C370.048889,219.008194 369.434143,216.620407 372.076782,216.477859 
	C374.259003,216.360168 377.224182,214.933624 378.296326,219.054138 
z"/>
<path fill="#000203" opacity="1.000000" stroke="none" 
	d="
M255.332993,226.900406 
	C255.210999,233.074570 254.519958,233.753006 249.602615,233.012589 
	C249.439651,232.988037 249.266678,233.015564 249.108261,232.977554 
	C247.192581,232.517899 245.723846,222.476471 247.090393,218.354553 
	C248.246307,214.868042 251.233109,216.513458 253.444244,216.476990 
	C255.041168,216.450668 255.312393,218.065674 255.316315,219.469437 
	C255.322769,221.785904 255.327530,224.102356 255.332993,226.900406 
z"/>
<path fill="#17BBE7" opacity="1.000000" stroke="none" 
	d="
M255.743652,285.992065 
	C257.425140,286.280273 258.855072,286.573944 260.646179,286.926697 
	C263.664398,287.533783 265.938477,288.866577 268.086578,290.451904 
	C269.036133,291.152679 270.042358,291.887238 269.511841,293.280945 
	C269.036255,294.530365 267.887207,294.995422 266.695923,294.907104 
	C263.739594,294.687927 260.795197,294.308258 257.417816,293.983032 
	C256.649353,291.410919 251.229065,290.336426 254.912445,286.313416 
	C255.156631,286.004761 255.324356,286.001160 255.743652,285.992065 
z"/>
<path fill="#15C4DF" opacity="1.000000" stroke="none" 
	d="
M121.194771,273.715424 
	C113.443588,282.999329 108.176659,293.368774 103.145699,303.855469 
	C102.303642,305.610657 101.129227,306.996948 99.578316,306.321655 
	C97.934799,305.605957 99.481033,303.923065 99.966690,302.913971 
	C102.229622,298.211945 104.692741,293.606262 107.151230,288.616089 
	C107.310852,288.107483 107.403503,287.948853 107.236115,287.881378 
	C103.869492,288.305328 102.059921,290.129028 100.751770,292.884460 
	C98.623741,297.366821 96.207779,301.711578 93.985252,306.150452 
	C93.211754,307.695251 91.856018,308.788177 90.476166,308.026978 
	C88.913467,307.164856 90.333786,305.685547 90.870583,304.608124 
	C92.858162,300.618896 94.936584,296.674896 97.150291,292.385620 
	C94.621689,292.032654 92.709129,292.253754 91.277420,294.774261 
	C90.276367,295.608795 89.454742,295.788635 88.192139,295.220520 
	C85.985786,291.677551 84.290970,293.009277 82.972824,295.292480 
	C80.976852,298.749817 79.172234,302.320068 77.360680,305.880188 
	C76.670532,307.236481 75.806007,308.231323 74.283119,307.365509 
	C72.779892,306.510925 73.822899,305.307739 74.304085,304.345062 
	C75.642868,301.666656 77.141251,299.066223 78.424141,296.362640 
	C78.904778,295.349731 80.470856,293.988708 78.569328,293.057404 
	C77.124367,292.349731 75.721573,292.825867 74.901802,294.562439 
	C73.623825,297.269653 72.278107,299.959503 70.737511,302.522278 
	C69.921906,303.879028 69.675072,306.840942 67.123314,305.432251 
	C64.860054,304.182831 67.135025,302.549438 67.715378,301.226379 
	C68.783592,298.791168 70.097260,296.463989 71.297318,294.086060 
	C71.804886,293.080292 72.742699,291.949738 71.190353,291.125397 
	C69.859337,290.418579 68.655998,290.629456 67.878311,292.172974 
	C66.380127,295.146576 64.813316,298.085724 63.266296,301.034607 
	C62.636154,302.235779 61.964684,303.653931 60.292408,302.702515 
	C58.547787,301.709869 59.715893,300.387054 60.279804,299.274017 
	C61.709496,296.452057 63.201046,293.661072 64.691246,290.870209 
	C65.439110,289.469604 65.399788,288.381439 63.763313,287.638092 
	C62.167850,286.913422 61.692272,288.061768 61.153114,289.089325 
	C59.683224,291.890656 58.300705,294.739502 56.765694,297.504089 
	C56.189224,298.542358 55.737671,300.322113 53.881035,299.124756 
	C52.550426,298.266602 53.102444,297.141296 53.663273,296.060883 
	C55.197834,293.104523 56.696110,290.129150 58.248981,287.182526 
	C58.990269,285.775879 59.682377,284.370850 57.813667,283.357605 
	C55.572266,282.142365 55.387798,284.302216 54.751114,285.451630 
	C53.379799,287.927216 52.183540,290.499329 50.834095,292.987732 
	C50.319496,293.936676 49.943199,295.493927 48.417908,294.913788 
	C46.763783,294.284668 47.013248,292.911652 47.702026,291.579742 
	C49.385143,288.325043 50.984325,285.024811 52.747913,281.814636 
	C53.692204,280.095825 53.860832,278.388580 52.040264,277.553375 
	C49.946915,276.593018 49.838955,278.976654 49.203018,280.063568 
	C47.691227,282.647461 46.451469,285.388977 45.030670,288.028564 
	C44.599094,288.830322 44.199162,290.066345 42.882210,289.439941 
	C41.580242,288.820587 41.477230,287.659088 42.076756,286.475067 
	C43.882595,282.908783 45.706718,279.351196 47.573231,275.816376 
	C48.750782,273.586273 49.403034,271.505432 46.277943,269.697449 
	C44.267670,273.595947 42.332970,277.425110 40.313213,281.208832 
	C39.826466,282.120728 39.556793,283.801239 37.977772,283.076691 
	C36.483112,282.390839 36.579182,280.937683 37.251575,279.624115 
	C39.376492,275.472900 41.470016,271.302948 43.716946,267.217926 
	C45.032482,264.826233 45.347355,262.617004 43.401569,260.145935 
	C40.005741,263.949402 37.881817,268.312103 36.000610,272.853088 
	C35.550777,273.938904 35.824314,276.495911 33.517387,275.394104 
	C31.698277,274.525299 32.218189,272.763092 33.096981,271.163055 
	C35.562809,266.673431 37.816017,262.063873 40.373409,257.628662 
	C42.585892,253.791626 43.857498,249.894608 42.652760,244.010315 
	C38.353409,252.063477 34.653873,258.993134 30.766281,266.275024 
	C29.072889,264.452942 28.830114,263.235901 29.983385,261.052826 
	C39.974388,242.140472 49.761997,223.120651 59.612747,204.134186 
	C60.226269,202.951675 60.893105,201.795898 61.478497,200.599960 
	C62.162144,199.203323 63.330284,198.401505 64.662865,199.195602 
	C66.312393,200.178589 64.621773,201.348648 64.177711,202.074448 
	C60.820900,207.560989 58.012112,213.306320 55.432610,219.619415 
	C55.596592,220.367889 55.986847,220.488235 56.737740,220.228485 
	C64.282921,215.428925 65.452156,206.865875 69.778648,200.345261 
	C70.942528,198.591125 71.232681,194.688507 74.071480,196.261917 
	C76.487473,197.600983 73.660370,200.294495 72.636642,201.806519 
	C70.582764,204.840088 69.193123,208.001511 68.203873,211.849899 
	C71.232635,212.074585 72.996964,210.843323 74.294281,208.124481 
	C75.350670,207.455811 76.204788,207.127975 77.526123,207.717102 
	C80.030106,211.081650 81.569778,209.464905 83.250946,207.092712 
	C84.289818,206.472626 85.129036,206.141586 86.428444,206.719360 
	C86.692322,207.937485 86.300209,209.018784 87.838661,209.201782 
	C89.242828,209.368805 90.397324,209.240875 91.134232,207.704773 
	C92.715965,204.407608 94.468681,201.192917 96.109993,197.923691 
	C96.833649,196.482269 97.746735,195.077393 99.498909,196.026733 
	C101.321800,197.014404 99.758064,198.317825 99.267525,199.350815 
	C98.055374,201.903381 96.616081,204.349152 95.432518,206.913742 
	C94.896980,208.074173 93.338287,209.565994 95.752182,210.541382 
	C97.773987,211.358337 98.352936,209.824722 99.042809,208.477676 
	C100.483505,205.664597 101.938721,202.858963 103.376297,200.044296 
	C103.993225,198.836395 104.600037,197.410782 106.297318,198.179977 
	C108.220871,199.051666 107.013702,200.430069 106.480904,201.518219 
	C105.090752,204.357330 103.560081,207.127396 102.153625,209.958862 
	C101.637581,210.997772 101.150513,212.136597 102.628555,212.941925 
	C104.249863,213.825333 105.054924,212.967621 105.732513,211.623367 
	C107.155670,208.800003 108.594650,205.984009 110.074753,203.190216 
	C110.658623,202.088104 111.001183,200.395187 112.882278,201.292831 
	C114.680328,202.150879 113.866020,203.395737 113.229645,204.607010 
	C111.836418,207.258850 110.471603,209.925858 109.119408,212.598923 
	C108.392853,214.035187 107.069313,215.592896 109.417702,216.762711 
	C111.674423,217.886841 111.828186,215.696640 112.468544,214.574234 
	C113.869492,212.118729 115.079918,209.555237 116.404335,207.055023 
	C116.999245,205.931961 117.445572,204.257629 119.246262,205.336670 
	C120.846733,206.295715 120.024155,207.633041 119.408478,208.817001 
	C117.872696,211.770386 116.342461,214.727341 114.752235,217.651443 
	C113.971893,219.086334 113.446121,220.504486 115.121780,221.573502 
	C117.411896,223.034561 117.534691,220.606125 118.147530,219.570770 
	C119.671494,216.996170 120.914787,214.257172 122.357628,211.631897 
	C122.864616,210.709396 123.261917,209.175400 124.864296,210.118164 
	C126.109535,210.850815 126.003555,211.983932 125.395943,213.155823 
	C123.633453,216.555130 121.937508,219.989700 120.129013,223.364090 
	C119.158775,225.174423 118.669647,227.172318 120.792007,228.061584 
	C122.790649,228.899063 122.826553,226.403839 123.505173,225.301102 
	C124.810478,223.180008 125.764374,220.845337 127.017494,218.688385 
	C127.688950,217.532654 127.945480,215.117065 129.716400,215.872452 
	C132.094955,216.887054 130.759354,218.909836 129.906448,220.539520 
	C128.130737,223.932373 126.448242,227.377426 124.567047,230.710495 
	C123.332840,232.897217 123.446129,234.768509 125.343094,236.913132 
	C128.176193,233.260956 129.726273,229.091812 131.855087,225.258987 
	C132.439041,224.207596 132.715530,222.053925 134.272583,222.678299 
	C136.158752,223.434647 135.739151,225.357117 134.885849,226.982117 
	C132.564026,231.403732 130.342133,235.880005 127.924667,240.248322 
	C126.545914,242.739685 126.252411,245.093964 128.034714,248.460358 
	C131.388687,242.169861 134.440796,236.445541 137.596481,230.526962 
	C140.292984,232.808594 139.117371,234.750137 138.142609,236.645538 
	C135.173187,242.419540 132.246567,248.217377 129.161667,253.929443 
	C127.484055,257.035736 126.092300,260.202209 125.467285,264.079773 
	C125.852478,268.230804 124.112114,271.049835 121.194771,273.715424 
z"/>
<path fill="#13BFD2" opacity="1.000000" stroke="none" 
	d="
M126.838226,266.286011 
	C131.558685,257.758972 135.968994,249.417419 140.491760,240.863159 
	C142.856552,243.314926 142.009033,245.452637 140.918747,247.565582 
	C132.140488,264.577515 123.340714,281.578369 114.578499,298.598541 
	C113.461349,300.768555 112.095566,302.534363 108.324020,303.156494 
	C113.388618,293.246368 118.130577,283.967590 122.981079,274.348694 
	C122.921997,270.896851 124.389603,268.531158 126.838226,266.286011 
z"/>
<path fill="#13BFD2" opacity="1.000000" stroke="none" 
	d="
M52.405869,204.320602 
	C53.296440,203.828400 54.076336,203.150192 54.445587,203.327438 
	C55.858555,204.005722 54.782253,204.951691 54.401554,205.700836 
	C51.541176,211.329422 48.638466,216.936508 45.744072,222.547791 
	C40.792770,232.146713 35.858288,241.754425 30.856375,251.326920 
	C30.289207,252.412338 30.179945,253.952118 28.267414,254.428177 
	C27.642092,252.117111 27.644779,249.975922 28.749336,247.833984 
	C35.680088,234.393951 42.577805,220.936783 49.555889,207.521423 
	C50.145519,206.387878 51.244339,205.519211 52.405869,204.320602 
z"/>
<path fill="#13BFD2" opacity="1.000000" stroke="none" 
	d="
M122.484993,293.098938 
	C128.286728,280.458282 134.622131,268.083466 140.957535,255.708618 
	C141.521057,255.971664 142.084595,256.234711 142.648117,256.497742 
	C139.093613,269.687225 132.130630,281.343964 124.476318,293.004517 
	C123.805450,293.251160 123.412071,293.308014 122.484993,293.098938 
z"/>
<path fill="#15CCE0" opacity="1.000000" stroke="none" 
	d="
M78.109360,207.720871 
	C77.046783,207.968094 76.199829,207.942383 74.930099,207.884781 
	C76.369858,204.161469 78.271210,200.488922 80.079117,196.770950 
	C81.031570,194.812225 82.145042,193.361115 85.140297,194.430847 
	C82.839378,198.825546 80.582184,203.136749 78.109360,207.720871 
z"/>
<path fill="#15CCE0" opacity="1.000000" stroke="none" 
	d="
M87.583679,295.170349 
	C88.637138,294.964447 89.429932,294.980347 90.619125,295.002014 
	C89.109947,298.870026 87.188477,302.724548 85.307693,306.598816 
	C84.676567,307.898895 83.860909,309.089294 82.290649,308.402130 
	C80.184143,307.480194 81.838326,306.118500 82.303864,305.143463 
	C83.878281,301.845917 85.635605,298.635712 87.583679,295.170349 
z"/>
<path fill="#15CFE3" opacity="1.000000" stroke="none" 
	d="
M87.011063,206.707062 
	C85.957581,206.962982 85.123283,206.938095 83.872917,206.879089 
	C85.232712,203.295090 87.042198,199.761414 88.766953,196.186859 
	C89.406723,194.860947 90.146851,193.796524 91.768227,194.451340 
	C94.059998,195.376892 92.244644,196.709061 91.815155,197.624390 
	C90.411102,200.616638 88.776306,203.500610 87.011063,206.707062 
z"/>
<path fill="#0C828E" opacity="1.000000" stroke="none" 
	d="
M31.384045,232.275070 
	C32.329201,227.796616 34.291458,224.098175 36.811073,220.288986 
	C37.580368,219.789490 38.040440,219.930695 38.317390,220.828308 
	C36.415840,224.814392 34.586891,228.404297 32.519249,232.256195 
	C32.026215,232.557938 31.771872,232.597672 31.384045,232.275070 
z"/>
<path fill="#05363D" opacity="1.000000" stroke="none" 
	d="
M126.809456,265.884644 
	C125.960709,268.584869 124.773048,271.069244 123.337517,273.781067 
	C122.605896,273.984680 122.122147,273.960815 121.275085,273.944397 
	C122.258362,270.959442 123.604950,267.967010 125.181221,264.717407 
	C125.764114,264.863068 126.117332,265.265930 126.809456,265.884644 
z"/>
<path fill="#0C828E" opacity="1.000000" stroke="none" 
	d="
M56.594547,219.998642 
	C56.449249,221.275696 55.515949,222.430450 54.179958,221.773361 
	C53.169415,221.276367 54.256092,220.565552 55.042641,220.043015 
	C55.584587,219.978149 55.873932,219.960693 56.594547,219.998642 
z"/>
<path fill="#0C828E" opacity="1.000000" stroke="none" 
	d="
M121.726875,293.002014 
	C122.322220,292.916260 122.693130,292.999390 123.631439,293.138489 
	C123.371666,294.201935 122.756798,295.805115 121.130608,295.206238 
	C120.524666,294.983093 121.053635,293.821198 121.726875,293.002014 
z"/>
<path fill="#09626C" opacity="1.000000" stroke="none" 
	d="
M32.040627,232.336945 
	C31.947781,233.464905 32.055958,235.151825 30.676208,234.784729 
	C29.806396,234.553284 30.695423,233.176529 31.100130,232.122345 
	C31.433941,231.993713 31.617321,232.074707 32.040627,232.336945 
z"/>
<path fill="#09626C" opacity="1.000000" stroke="none" 
	d="
M38.448864,220.963058 
	C38.001560,220.918823 37.758331,220.613159 37.262413,220.158081 
	C37.509460,219.636948 38.199600,218.850204 38.471554,218.974960 
	C39.158096,219.289932 38.929371,220.073074 38.448864,220.963058 
z"/>
<path fill="#09626C" opacity="1.000000" stroke="none" 
	d="
M40.087982,216.853210 
	C40.087597,216.417191 40.439697,216.126785 40.087982,216.853210 
z"/>
<path fill="#09626C" opacity="1.000000" stroke="none" 
	d="
M40.068436,217.081055 
	C39.985367,217.378021 39.788513,217.561615 39.591663,217.745209 
	C39.533386,217.508484 39.475105,217.271774 39.570755,216.889221 
	C39.724682,216.743408 39.954655,216.967697 40.068436,217.081055 
z"/>
<path fill="#000203" opacity="1.000000" stroke="none" 
	d="
M96.648331,284.943237 
	C80.537491,289.836670 64.933403,284.529755 55.816711,271.287903 
	C47.076813,258.593353 47.653370,241.694824 57.248146,229.332947 
	C66.539818,217.361588 82.714302,212.734283 97.223534,217.896561 
	C111.776489,223.074387 121.628281,237.191849 120.706581,252.665527 
	C119.775764,268.292297 111.601517,279.026459 96.648331,284.943237 
z"/>
<path fill="#011012" opacity="1.000000" stroke="none" 
	d="
M107.037445,288.045227 
	C107.131187,287.778931 107.286308,287.585297 107.441429,287.391693 
	C107.489784,287.632812 107.538139,287.873932 107.402344,288.190582 
	C107.218201,288.266113 107.098831,288.117920 107.037445,288.045227 
z"/>
</svg>