<svg version="1.1" id="Layer_1" xmlns="http://www.w3.org/2000/svg" xmlns:xlink="http://www.w3.org/1999/xlink" x="0px" y="0px"
	 width="100%" viewBox="0 0 1347 613" enable-background="new 0 0 1347 613" xml:space="preserve">
<path fill="#5AA8BC" opacity="1.000000" stroke="none" 
	d="
M967.000000,0.999986 
	C1093.984009,1.000000 1220.968140,1.000000 1347.976074,1.000000 
	C1347.976074,205.291702 1347.976074,409.583405 1347.976074,613.937561 
	C899.098083,613.937561 450.196106,613.937561 1.147069,613.937561 
	C1.147069,409.790466 1.147069,205.580826 1.147069,1.000000 
	C128.693298,1.000000 256.386932,1.000000 384.422363,1.325108 
	C366.473236,11.152867 356.166962,26.101961 356.100647,46.794060 
	C355.850128,124.949654 355.942566,203.106598 356.031097,281.262909 
	C356.062195,308.702240 378.228882,330.956940 405.631165,330.966675 
	C585.940796,331.030762 766.250488,331.035278 946.560120,330.960663 
	C973.691895,330.949432 995.920105,308.699188 995.959290,281.571503 
	C996.072510,203.248627 996.021484,124.925461 995.975891,46.602444 
	C995.969116,35.045731 992.595337,24.333097 984.799988,15.828618 
	C979.628906,10.187082 972.984802,5.895710 967.000000,0.999986 
z"/>
<path fill="#000000" opacity="1.000000" stroke="none" 
	d="
M966.531372,0.999986 
	C972.984802,5.895710 979.628906,10.187082 984.799988,15.828618 
	C992.595337,24.333097 995.969116,35.045731 995.975891,46.602444 
	C996.021484,124.925461 996.072510,203.248627 995.959290,281.571503 
	C995.920105,308.699188 973.691895,330.949432 946.560120,330.960663 
	C766.250488,331.035278 585.940796,331.030762 405.631165,330.966675 
	C378.228882,330.956940 356.062195,308.702240 356.031097,281.262909 
	C355.942566,203.106598 355.850128,124.949654 356.100647,46.794060 
	C356.166962,26.101961 366.473236,11.152867 384.882050,1.325108 
	C578.687561,1.000000 772.375122,1.000000 966.531372,0.999986 
M796.599792,202.729767 
	C795.766602,202.729874 794.933350,202.726654 794.100159,202.730606 
	C786.285339,202.767761 783.747009,205.340378 783.732178,213.264938 
	C783.721558,218.930618 783.682129,224.596863 783.744629,230.261871 
	C783.805847,235.817749 786.721985,238.930328 792.381531,238.959641 
	C812.044312,239.061478 831.708130,239.046432 851.371094,238.969482 
	C856.927429,238.947739 859.893494,235.826691 859.979492,230.180420 
	C860.070801,224.182831 860.055542,218.182159 859.985535,212.183990 
	C859.908020,205.534454 857.120911,202.748199 850.565369,202.738876 
	C832.901733,202.713760 815.238098,202.729965 796.599792,202.729767 
M703.308716,202.729919 
	C684.519836,202.730148 665.730957,202.703842 646.942200,202.745697 
	C640.744751,202.759491 637.802795,205.721573 637.743225,211.890671 
	C637.685364,217.875931 637.698242,223.862442 637.739502,229.847977 
	C637.781921,235.985809 640.665466,238.954163 646.934387,238.975739 
	C666.388123,239.042679 685.842407,239.044144 705.296021,238.971878 
	C710.883057,238.951126 713.882690,235.878601 713.977112,230.286072 
	C714.078003,224.301926 714.047607,218.314316 713.987854,212.329071 
	C713.919678,205.495819 711.235229,202.895660 703.308716,202.729919 
M491.729919,213.691589 
	C491.730103,219.012329 491.704590,224.333206 491.737061,229.653748 
	C491.775482,235.955124 494.522644,238.943939 500.740173,238.969971 
	C520.193726,239.051437 539.648010,239.039215 559.101746,238.976547 
	C564.959045,238.957687 567.908081,235.900482 567.983521,229.981827 
	C568.059814,223.996979 568.065125,218.009521 567.982910,212.024826 
	C567.893677,205.536804 564.999695,202.744415 558.440125,202.737427 
	C539.485046,202.717224 520.529907,202.715668 501.574829,202.737808 
	C494.489288,202.746094 491.904266,205.417328 491.729919,213.691589 
M580.315186,138.193085 
	C580.938049,144.624435 580.931213,151.199081 582.353333,157.448578 
	C583.908630,164.283310 596.801514,164.917480 600.479675,159.178741 
	C605.106445,151.959839 604.655090,144.386093 602.991089,136.615479 
	C601.391296,129.145081 598.110107,126.634445 590.803528,127.001129 
	C585.410706,127.271774 581.651367,131.269775 580.315186,138.193085 
M619.589233,162.999237 
	C626.294861,162.839310 630.029358,160.234955 630.855530,153.541245 
	C631.580994,147.663696 631.506531,141.567230 630.844971,135.673019 
	C630.206543,129.984940 625.714539,126.967888 619.838318,127.000786 
	C614.103333,127.032890 610.042175,130.162643 609.079895,136.028870 
	C608.342407,140.524628 607.465820,145.282227 608.183044,149.673096 
	C609.705017,158.989410 610.492615,161.362473 619.589233,162.999237 
M652.030579,157.194244 
	C654.250305,162.122284 658.450623,163.246902 663.309875,162.986694 
	C667.835876,162.744339 670.934875,160.177811 672.295898,156.118546 
	C674.959534,148.174454 675.174683,140.062561 671.635864,132.307327 
	C668.653992,125.772598 657.864929,124.814133 653.757874,130.712585 
	C648.120789,138.808411 649.172241,147.590622 652.030579,157.194244 
M700.964966,134.981918 
	C699.038147,129.353271 695.195190,126.690361 689.160950,126.961632 
	C684.354370,127.177704 681.146423,129.666275 679.694458,133.898621 
	C677.031982,141.659607 677.186951,149.517181 680.061951,157.294907 
	C682.692200,164.410370 695.093933,164.830948 698.660461,158.962646 
	C703.191956,151.506653 702.464905,143.761337 700.964966,134.981918 
M720.001099,140.849533 
	C720.648193,146.147079 721.008179,151.500961 722.032776,156.724487 
	C722.861267,160.948593 726.494080,162.487778 730.352112,162.944839 
	C734.552429,163.442459 738.511475,162.684402 740.857727,158.607346 
	C745.496826,150.545914 745.020081,142.084747 742.132263,133.696030 
	C740.324158,128.443726 736.689758,126.631058 730.619202,127.001556 
	C726.340454,127.262695 722.157593,130.833099 721.034058,135.236206 
	C720.637146,136.791901 720.344727,138.374268 720.001099,140.849533 
M748.000610,142.682846 
	C748.343750,146.743698 748.334106,150.874023 749.117004,154.848251 
	C750.156494,160.125198 754.478699,163.033524 760.174561,162.999222 
	C765.583801,162.966644 770.028381,159.748535 770.896301,154.466156 
	C771.661072,149.811569 772.435425,144.929596 771.833130,140.327652 
	C770.629883,131.133087 768.372681,126.479820 758.295410,127.035370 
	C752.339355,127.363724 748.606934,132.872635 748.000610,142.682846 
M611.000610,88.491417 
	C611.000610,91.940895 611.000610,95.390381 611.000610,99.003044 
	C612.543091,98.894852 614.346497,98.890427 614.357178,98.749977 
	C614.765442,93.368851 615.009399,87.975250 615.323853,81.597038 
	C616.713623,86.634483 617.736023,90.815956 619.063049,94.898407 
	C619.543762,96.377304 620.753357,97.619308 621.630371,98.969391 
	C622.421753,97.532143 623.459778,96.174828 623.956604,94.642105 
	C625.248413,90.656715 626.302429,86.594292 627.451294,82.562599 
	C628.001770,87.179008 628.099670,91.674034 627.970825,96.162567 
	C627.867249,99.770058 629.629333,99.315781 631.771851,98.506210 
	C631.771851,91.254692 631.771851,84.309425 631.771851,77.209190 
	C629.452209,77.209190 627.361023,77.209190 625.225403,77.209190 
	C623.975220,82.699348 622.767456,88.003082 621.487366,93.624603 
	C620.190125,87.875763 618.987122,82.544815 617.802124,77.293533 
	C615.413208,77.293533 613.343628,77.293533 611.000610,77.293533 
	C611.000610,80.890137 611.000610,84.197495 611.000610,88.491417 
M699.001709,96.288033 
	C699.892761,97.333397 700.783813,98.378769 701.674805,99.424133 
	C702.117126,99.125206 702.559448,98.826271 703.001770,98.527336 
	C703.001770,95.732140 702.605591,92.855934 703.154175,90.172913 
	C703.469971,88.628639 705.314697,87.396980 706.471130,86.024597 
	C707.314209,87.343956 708.702393,88.591919 708.886475,89.997581 
	C709.265259,92.889809 709.000366,95.866348 709.000366,98.808189 
	C709.512512,99.067261 710.024597,99.326340 710.536743,99.585419 
	C711.356750,98.537842 712.730713,97.565300 712.884827,96.427536 
	C713.238403,93.816856 713.110168,91.119720 712.971802,88.468422 
	C712.745667,84.134338 709.315552,81.958839 705.140503,83.344414 
	C704.051086,83.705956 702.907288,84.287003 701.824219,84.216774 
	C697.599548,83.942795 693.389160,83.447853 689.194214,83.037117 
	C689.194214,88.683945 689.194214,93.630203 689.194214,98.576469 
	C689.590881,98.862526 689.987488,99.148590 690.384155,99.434647 
	C691.255432,98.367226 692.644348,97.403404 692.883362,96.209427 
	C693.299255,94.131889 692.520630,91.751617 693.166016,89.804222 
	C693.662781,88.305389 695.576111,87.276047 696.859558,86.037956 
	C697.573181,87.316551 698.634460,88.524223 698.913452,89.891487 
	C699.271423,91.646210 699.000610,93.529221 699.001709,96.288033 
M725.931702,95.573402 
	C722.809265,96.769852 721.043335,95.515457 719.786255,91.943787 
	C723.799011,91.943787 727.327087,91.943787 731.028687,91.943787 
	C731.082825,86.849037 728.855103,83.858650 724.463501,83.108459 
	C720.923889,82.503822 718.217163,84.226990 716.726196,87.721001 
	C714.988647,91.792618 715.880249,95.371574 719.393738,97.617950 
	C723.156372,100.023582 727.226624,99.904472 731.143921,96.256256 
	C729.314636,95.786324 727.934143,95.431686 725.931702,95.573402 
M668.001648,96.228882 
	C667.829407,99.796822 669.695862,99.304619 672.154236,98.332603 
	C672.154236,92.587265 672.154236,86.994560 672.154236,81.447319 
	C678.734253,80.642799 678.734253,80.642799 678.564819,77.209106 
	C672.838745,77.209106 667.104980,77.209106 661.377441,77.209106 
	C661.285645,80.595238 661.285645,80.595238 668.000732,81.518364 
	C668.000732,86.061226 668.000732,90.667747 668.001648,96.228882 
M642.951843,94.009956 
	C642.855103,94.144623 642.774780,94.297630 642.654419,94.405991 
	C642.596985,94.457626 642.381897,94.448265 642.375427,94.426262 
	C641.564148,91.663589 640.791504,88.889328 639.958740,86.133247 
	C639.221191,83.692253 638.076965,81.910690 634.904846,83.648209 
	C636.488647,87.837105 638.362305,91.954651 639.514771,96.265007 
	C639.958252,97.923767 638.926208,100.084175 638.240601,101.892479 
	C637.898315,102.795227 636.822266,103.419769 636.078125,104.170135 
	C637.273132,104.439430 638.846985,105.316208 639.586548,104.855087 
	C641.270020,103.805481 643.149048,102.351128 643.873047,100.613220 
	C646.199890,95.027580 648.038757,89.238655 650.065857,83.528145 
	C649.598083,83.151291 649.130310,82.774437 648.662537,82.397583 
	C647.448914,83.710075 645.859863,84.840279 645.112549,86.379219 
	C644.078918,88.507591 643.678955,90.943710 642.951843,94.009956 
M740.441589,86.012108 
	C741.628296,85.374489 742.815002,84.736870 744.001709,84.099251 
	C743.863525,83.861053 743.725403,83.622849 743.587219,83.384644 
	C740.483521,83.384644 737.379761,83.384644 734.242432,83.384644 
	C734.242432,88.542755 734.242432,93.628670 734.242432,98.730179 
	C735.551697,98.730179 736.616333,98.730179 737.204590,98.730179 
	C738.046570,94.300880 738.825378,90.203957 740.441589,86.012108 
M684.999268,86.717178 
	C685.210266,84.048630 684.860474,82.004967 681.230469,83.435341 
	C681.230469,88.532112 681.230469,93.601967 681.230469,98.671814 
	C681.649109,98.949570 682.067749,99.227318 682.486389,99.505074 
	C683.323669,98.376129 684.725037,97.320892 684.884094,96.103325 
	C685.246277,93.331116 684.999023,90.479256 684.999268,86.717178 
z"/>
<path fill="#EFEFEF" opacity="1.000000" stroke="none" 
	d="
M797.087158,202.729767 
	C815.238098,202.729965 832.901733,202.713760 850.565369,202.738876 
	C857.120911,202.748199 859.908020,205.534454 859.985535,212.183990 
	C860.055542,218.182159 860.070801,224.182831 859.979492,230.180420 
	C859.893494,235.826691 856.927429,238.947739 851.371094,238.969482 
	C831.708130,239.046432 812.044312,239.061478 792.381531,238.959641 
	C786.721985,238.930328 783.805847,235.817749 783.744629,230.261871 
	C783.682129,224.596863 783.721558,218.930618 783.732178,213.264938 
	C783.747009,205.340378 786.285339,202.767761 794.100159,202.730606 
	C794.933350,202.726654 795.766602,202.729874 797.087158,202.729767 
z"/>
<path fill="#EFEFEF" opacity="1.000000" stroke="none" 
	d="
M703.777100,202.730042 
	C711.235229,202.895660 713.919678,205.495819 713.987854,212.329071 
	C714.047607,218.314316 714.078003,224.301926 713.977112,230.286072 
	C713.882690,235.878601 710.883057,238.951126 705.296021,238.971878 
	C685.842407,239.044144 666.388123,239.042679 646.934387,238.975739 
	C640.665466,238.954163 637.781921,235.985809 637.739502,229.847977 
	C637.698242,223.862442 637.685364,217.875931 637.743225,211.890671 
	C637.802795,205.721573 640.744751,202.759491 646.942200,202.745697 
	C665.730957,202.703842 684.519836,202.730148 703.777100,202.730042 
z"/>
<path fill="#EFEFEF" opacity="1.000000" stroke="none" 
	d="
M491.730042,213.222992 
	C491.904266,205.417328 494.489288,202.746094 501.574829,202.737808 
	C520.529907,202.715668 539.485046,202.717224 558.440125,202.737427 
	C564.999695,202.744415 567.893677,205.536804 567.982910,212.024826 
	C568.065125,218.009521 568.059814,223.996979 567.983521,229.981827 
	C567.908081,235.900482 564.959045,238.957687 559.101746,238.976547 
	C539.648010,239.039215 520.193726,239.051437 500.740173,238.969971 
	C494.522644,238.943939 491.775482,235.955124 491.737061,229.653748 
	C491.704590,224.333206 491.730103,219.012329 491.730042,213.222992 
z"/>
<path fill="#BEFD3F" opacity="1.000000" stroke="none" 
	d="
M580.604736,137.866302 
	C581.651367,131.269775 585.410706,127.271774 590.803528,127.001129 
	C598.110107,126.634445 601.391296,129.145081 602.991089,136.615479 
	C604.655090,144.386093 605.106445,151.959839 600.479675,159.178741 
	C596.801514,164.917480 583.908630,164.283310 582.353333,157.448578 
	C580.931213,151.199081 580.938049,144.624435 580.604736,137.866302 
M584.852051,152.383743 
	C585.338196,156.521713 587.407654,158.945023 591.817383,159.013138 
	C596.147583,159.080017 598.810547,157.001572 599.016113,152.740616 
	C599.279602,147.277603 599.362732,141.758179 598.867798,136.322800 
	C598.528503,132.597580 595.687683,130.921051 591.865295,130.975327 
	C588.017761,131.029953 585.487427,132.856995 585.075073,136.588715 
	C584.520081,141.611221 584.508850,146.693817 584.852051,152.383743 
z"/>
<path fill="#BEFD3F" opacity="1.000000" stroke="none" 
	d="
M619.164856,162.999054 
	C610.492615,161.362473 609.705017,158.989410 608.183044,149.673096 
	C607.465820,145.282227 608.342407,140.524628 609.079895,136.028870 
	C610.042175,130.162643 614.103333,127.032890 619.838318,127.000786 
	C625.714539,126.967888 630.206543,129.984940 630.844971,135.673019 
	C631.506531,141.567230 631.580994,147.663696 630.855530,153.541245 
	C630.029358,160.234955 626.294861,162.839310 619.164856,162.999054 
M612.003296,150.019882 
	C612.331116,151.093002 612.754150,152.147400 612.969666,153.242615 
	C613.753052,157.223190 616.118774,159.068207 620.178894,159.024124 
	C624.054199,158.982040 626.653687,157.068558 626.899048,153.373932 
	C627.282776,147.595459 627.375732,141.732574 626.814331,135.981339 
	C626.487366,132.631775 623.654480,130.961990 620.023987,130.959274 
	C616.406250,130.956573 613.778931,132.577103 613.149597,135.939941 
	C612.342468,140.252640 612.346008,144.717072 612.003296,150.019882 
z"/>
<path fill="#BEFD3F" opacity="1.000000" stroke="none" 
	d="
M651.950928,156.797821 
	C649.172241,147.590622 648.120789,138.808411 653.757874,130.712585 
	C657.864929,124.814133 668.653992,125.772598 671.635864,132.307327 
	C675.174683,140.062561 674.959534,148.174454 672.295898,156.118546 
	C670.934875,160.177811 667.835876,162.744339 663.309875,162.986694 
	C658.450623,163.246902 654.250305,162.122284 651.950928,156.797821 
M659.184326,131.309723 
	C658.117798,132.240906 656.581909,132.963928 656.061523,134.137314 
	C652.859375,141.357437 652.828674,148.798355 656.186707,155.872025 
	C656.959351,157.499496 660.208557,158.911392 662.181091,158.749817 
	C664.323853,158.574310 667.802917,156.716949 668.089783,155.123245 
	C669.108337,149.464630 669.448486,143.588318 669.216919,137.827789 
	C668.995972,132.330032 665.198181,130.386703 659.184326,131.309723 
z"/>
<path fill="#BEFD3F" opacity="1.000000" stroke="none" 
	d="
M700.981201,135.404541 
	C702.464905,143.761337 703.191956,151.506653 698.660461,158.962646 
	C695.093933,164.830948 682.692200,164.410370 680.061951,157.294907 
	C677.186951,149.517181 677.031982,141.659607 679.694458,133.898621 
	C681.146423,129.666275 684.354370,127.177704 689.160950,126.961632 
	C695.195190,126.690361 699.038147,129.353271 700.981201,135.404541 
M687.960571,131.037079 
	C686.290955,133.021683 683.413086,134.877441 683.185059,137.015793 
	C682.573914,142.746918 682.714233,148.639679 683.322571,154.387100 
	C683.657227,157.548935 686.631165,159.653732 689.842224,158.834625 
	C692.338074,158.197952 696.128174,156.360138 696.431152,154.564774 
	C697.385864,148.907532 697.247864,143.006790 696.998047,137.223373 
	C696.783875,132.266602 693.329102,130.690277 687.960571,131.037079 
z"/>
<path fill="#BEFD3F" opacity="1.000000" stroke="none" 
	d="
M720.002808,140.397003 
	C720.344727,138.374268 720.637146,136.791901 721.034058,135.236206 
	C722.157593,130.833099 726.340454,127.262695 730.619202,127.001556 
	C736.689758,126.631058 740.324158,128.443726 742.132263,133.696030 
	C745.020081,142.084747 745.496826,150.545914 740.857727,158.607346 
	C738.511475,162.684402 734.552429,163.442459 730.352112,162.944839 
	C726.494080,162.487778 722.861267,160.948593 722.032776,156.724487 
	C721.008179,151.500961 720.648193,146.147079 720.002808,140.397003 
M725.911133,134.530060 
	C722.910828,140.788391 723.505249,147.226334 725.028870,153.681152 
	C725.900452,157.373779 728.312927,159.067703 732.137085,159.028763 
	C735.751587,158.991974 738.380005,157.334274 738.867249,153.895386 
	C739.576721,148.888824 740.404541,143.655792 739.674622,138.743271 
	C738.455078,130.535751 732.260071,128.551147 725.911133,134.530060 
z"/>
<path fill="#BEFD3F" opacity="1.000000" stroke="none" 
	d="
M748.000610,142.222107 
	C748.606934,132.872635 752.339355,127.363724 758.295410,127.035370 
	C768.372681,126.479820 770.629883,131.133087 771.833130,140.327652 
	C772.435425,144.929596 771.661072,149.811569 770.896301,154.466156 
	C770.028381,159.748535 765.583801,162.966644 760.174561,162.999222 
	C754.478699,163.033524 750.156494,160.125198 749.117004,154.848251 
	C748.334106,150.874023 748.343750,146.743698 748.000610,142.222107 
M764.931213,132.442032 
	C758.061096,129.375259 754.047180,130.765152 752.731445,138.014282 
	C751.795105,143.173172 752.482178,148.745300 753.172791,154.038010 
	C753.612061,157.404816 756.386536,159.039169 760.009521,159.039856 
	C763.640137,159.040527 766.059387,157.375946 766.912659,154.023438 
	C768.721313,146.917191 769.033142,139.819244 764.931213,132.442032 
z"/>
<path fill="#BEFD3F" opacity="1.000000" stroke="none" 
	d="
M611.000610,87.998138 
	C611.000610,84.197495 611.000610,80.890137 611.000610,77.293533 
	C613.343628,77.293533 615.413208,77.293533 617.802124,77.293533 
	C618.987122,82.544815 620.190125,87.875763 621.487366,93.624603 
	C622.767456,88.003082 623.975220,82.699348 625.225403,77.209190 
	C627.361023,77.209190 629.452209,77.209190 631.771851,77.209190 
	C631.771851,84.309425 631.771851,91.254692 631.771851,98.506210 
	C629.629333,99.315781 627.867249,99.770058 627.970825,96.162567 
	C628.099670,91.674034 628.001770,87.179008 627.451294,82.562599 
	C626.302429,86.594292 625.248413,90.656715 623.956604,94.642105 
	C623.459778,96.174828 622.421753,97.532143 621.630371,98.969391 
	C620.753357,97.619308 619.543762,96.377304 619.063049,94.898407 
	C617.736023,90.815956 616.713623,86.634483 615.323853,81.597038 
	C615.009399,87.975250 614.765442,93.368851 614.357178,98.749977 
	C614.346497,98.890427 612.543091,98.894852 611.000610,99.003044 
	C611.000610,95.390381 611.000610,91.940895 611.000610,87.998138 
z"/>
<path fill="#BEFD3F" opacity="1.000000" stroke="none" 
	d="
M699.001221,95.822495 
	C699.000610,93.529221 699.271423,91.646210 698.913452,89.891487 
	C698.634460,88.524223 697.573181,87.316551 696.859558,86.037949 
	C695.576111,87.276047 693.662781,88.305389 693.166016,89.804222 
	C692.520630,91.751617 693.299255,94.131889 692.883362,96.209427 
	C692.644348,97.403404 691.255432,98.367226 690.384155,99.434647 
	C689.987488,99.148590 689.590881,98.862526 689.194214,98.576469 
	C689.194214,93.630203 689.194214,88.683945 689.194214,83.037117 
	C693.389160,83.447853 697.599548,83.942795 701.824219,84.216774 
	C702.907288,84.287003 704.051086,83.705956 705.140503,83.344414 
	C709.315552,81.958839 712.745667,84.134338 712.971802,88.468422 
	C713.110168,91.119720 713.238403,93.816856 712.884827,96.427536 
	C712.730713,97.565300 711.356750,98.537842 710.536743,99.585419 
	C710.024597,99.326340 709.512512,99.067261 709.000366,98.808189 
	C709.000366,95.866348 709.265259,92.889809 708.886475,89.997581 
	C708.702393,88.591919 707.314209,87.343956 706.471130,86.024597 
	C705.314697,87.396980 703.469971,88.628639 703.154175,90.172913 
	C702.605591,92.855934 703.001770,95.732140 703.001770,98.527336 
	C702.559448,98.826271 702.117126,99.125206 701.674805,99.424133 
	C700.783813,98.378769 699.892761,97.333397 699.001221,95.822495 
z"/>
<path fill="#BEFD3F" opacity="1.000000" stroke="none" 
	d="
M726.242676,95.325226 
	C727.934143,95.431686 729.314636,95.786324 731.143921,96.256256 
	C727.226624,99.904472 723.156372,100.023582 719.393738,97.617950 
	C715.880249,95.371574 714.988647,91.792618 716.726196,87.721001 
	C718.217163,84.226990 720.923889,82.503822 724.463501,83.108459 
	C728.855103,83.858650 731.082825,86.849037 731.028687,91.943787 
	C727.327087,91.943787 723.799011,91.943787 719.786255,91.943787 
	C721.043335,95.515457 722.809265,96.769852 726.242676,95.325226 
z"/>
<path fill="#BEFD3F" opacity="1.000000" stroke="none" 
	d="
M668.001221,95.751572 
	C668.000732,90.667747 668.000732,86.061226 668.000732,81.518364 
	C661.285645,80.595238 661.285645,80.595238 661.377441,77.209106 
	C667.104980,77.209106 672.838745,77.209106 678.564819,77.209106 
	C678.734253,80.642799 678.734253,80.642799 672.154236,81.447319 
	C672.154236,86.994560 672.154236,92.587265 672.154236,98.332603 
	C669.695862,99.304619 667.829407,99.796822 668.001221,95.751572 
z"/>
<path fill="#BEFD3F" opacity="1.000000" stroke="none" 
	d="
M642.979736,93.628998 
	C643.678955,90.943710 644.078918,88.507591 645.112549,86.379219 
	C645.859863,84.840279 647.448914,83.710075 648.662537,82.397583 
	C649.130310,82.774437 649.598083,83.151291 650.065857,83.528145 
	C648.038757,89.238655 646.199890,95.027580 643.873047,100.613220 
	C643.149048,102.351128 641.270020,103.805481 639.586548,104.855087 
	C638.846985,105.316208 637.273132,104.439430 636.078125,104.170143 
	C636.822266,103.419769 637.898315,102.795227 638.240601,101.892479 
	C638.926208,100.084175 639.958252,97.923767 639.514771,96.265007 
	C638.362305,91.954651 636.488647,87.837105 634.904846,83.648209 
	C638.076965,81.910690 639.221191,83.692253 639.958740,86.133247 
	C640.791504,88.889328 641.564148,91.663589 642.375427,94.426262 
	C642.381897,94.448265 642.596985,94.457626 642.654419,94.405991 
	C642.774780,94.297630 642.855103,94.144623 642.979736,93.628998 
z"/>
<path fill="#BEFD3F" opacity="1.000000" stroke="none" 
	d="
M740.022888,86.059570 
	C738.825378,90.203957 738.046570,94.300880 737.204590,98.730179 
	C736.616333,98.730179 735.551697,98.730179 734.242432,98.730179 
	C734.242432,93.628670 734.242432,88.542755 734.242432,83.384644 
	C737.379761,83.384644 740.483521,83.384644 743.587219,83.384644 
	C743.725403,83.622849 743.863525,83.861053 744.001709,84.099251 
	C742.815002,84.736870 741.628296,85.374489 740.022888,86.059570 
z"/>
<path fill="#BEFD3F" opacity="1.000000" stroke="none" 
	d="
M684.999329,87.188469 
	C684.999023,90.479256 685.246277,93.331116 684.884094,96.103325 
	C684.725037,97.320892 683.323669,98.376129 682.486389,99.505074 
	C682.067749,99.227318 681.649109,98.949570 681.230469,98.671814 
	C681.230469,93.601967 681.230469,88.532112 681.230469,83.435341 
	C684.860474,82.004967 685.210266,84.048630 684.999329,87.188469 
z"/>
<path fill="#000000" opacity="1.000000" stroke="none" 
	d="
M584.558105,152.067169 
	C584.508850,146.693817 584.520081,141.611221 585.075073,136.588715 
	C585.487427,132.856995 588.017761,131.029953 591.865295,130.975327 
	C595.687683,130.921051 598.528503,132.597580 598.867798,136.322800 
	C599.362732,141.758179 599.279602,147.277603 599.016113,152.740616 
	C598.810547,157.001572 596.147583,159.080017 591.817383,159.013138 
	C587.407654,158.945023 585.338196,156.521713 584.558105,152.067169 
z"/>
<path fill="#000000" opacity="1.000000" stroke="none" 
	d="
M612.001770,149.567993 
	C612.346008,144.717072 612.342468,140.252640 613.149597,135.939941 
	C613.778931,132.577103 616.406250,130.956573 620.023987,130.959274 
	C623.654480,130.961990 626.487366,132.631775 626.814331,135.981339 
	C627.375732,141.732574 627.282776,147.595459 626.899048,153.373932 
	C626.653687,157.068558 624.054199,158.982040 620.178894,159.024124 
	C616.118774,159.068207 613.753052,157.223190 612.969666,153.242615 
	C612.754150,152.147400 612.331116,151.093002 612.001770,149.567993 
z"/>
<path fill="#000000" opacity="1.000000" stroke="none" 
	d="
M659.574707,131.173370 
	C665.198181,130.386703 668.995972,132.330032 669.216919,137.827789 
	C669.448486,143.588318 669.108337,149.464630 668.089783,155.123245 
	C667.802917,156.716949 664.323853,158.574310 662.181091,158.749817 
	C660.208557,158.911392 656.959351,157.499496 656.186707,155.872025 
	C652.828674,148.798355 652.859375,141.357437 656.061523,134.137314 
	C656.581909,132.963928 658.117798,132.240906 659.574707,131.173370 
z"/>
<path fill="#000000" opacity="1.000000" stroke="none" 
	d="
M688.367676,131.020844 
	C693.329102,130.690277 696.783875,132.266602 696.998047,137.223373 
	C697.247864,143.006790 697.385864,148.907532 696.431152,154.564774 
	C696.128174,156.360138 692.338074,158.197952 689.842224,158.834625 
	C686.631165,159.653732 683.657227,157.548935 683.322571,154.387100 
	C682.714233,148.639679 682.573914,142.746918 683.185059,137.015793 
	C683.413086,134.877441 686.290955,133.021683 688.367676,131.020844 
z"/>
<path fill="#000000" opacity="1.000000" stroke="none" 
	d="
M725.979736,134.124512 
	C732.260071,128.551147 738.455078,130.535751 739.674622,138.743271 
	C740.404541,143.655792 739.576721,148.888824 738.867249,153.895386 
	C738.380005,157.334274 735.751587,158.991974 732.137085,159.028763 
	C728.312927,159.067703 725.900452,157.373779 725.028870,153.681152 
	C723.505249,147.226334 722.910828,140.788391 725.979736,134.124512 
z"/>
<path fill="#000000" opacity="1.000000" stroke="none" 
	d="
M765.217468,132.734985 
	C769.033142,139.819244 768.721313,146.917191 766.912659,154.023438 
	C766.059387,157.375946 763.640137,159.040527 760.009521,159.039856 
	C756.386536,159.039169 753.612061,157.404816 753.172791,154.038010 
	C752.482178,148.745300 751.795105,143.173172 752.731445,138.014282 
	C754.047180,130.765152 758.061096,129.375259 765.217468,132.734985 
z"/>
</svg>