<?xml version="1.0" standalone="no"?>
<!DOCTYPE svg PUBLIC "-//W3C//DTD SVG 20010904//EN"
 "http://www.w3.org/TR/2001/REC-SVG-20010904/DTD/svg10.dtd">
<svg version="1.0" xmlns="http://www.w3.org/2000/svg"
 width="96.000000pt" height="96.000000pt" viewBox="0 0 96.000000 96.000000"
 preserveAspectRatio="xMidYMid meet">

<g transform="translate(0.000000,96.000000) scale(0.100000,-0.100000)"
fill="#000000" stroke="none">
<path d="M0 480 l0 -480 480 0 480 0 0 480 0 480 -217 -1 c-172 -1 -208 -3
-170 -11 47 -10 60 -24 32 -34 -8 -4 -12 -10 -9 -15 3 -5 -2 -9 -11 -9 -9 0
-13 -4 -10 -10 3 -5 -2 -10 -12 -11 -10 -1 -1 -6 20 -13 21 -6 35 -15 32 -18
-4 -4 3 -11 14 -18 23 -12 29 -35 7 -27 -7 3 -18 1 -23 -4 -15 -15 -71 10 -76
34 -4 19 -4 18 -6 -5 -1 -21 5 -29 32 -39 l32 -12 -55 -7 c-55 -6 -79 4 -80
36 0 10 -42 25 -80 28 -19 1 -41 -72 -28 -96 6 -13 5 -18 -6 -18 -15 0 -29
-27 -20 -41 3 -5 2 -14 -1 -19 -8 -13 -35 6 -35 23 0 6 7 2 15 -9 14 -18 15
-17 9 11 -9 39 -11 40 -29 25 -13 -11 -15 -7 -16 31 -1 24 -3 36 -6 27 -6 -26
-30 -22 -49 7 -9 14 -20 22 -25 19 -5 -3 -9 2 -9 11 0 9 -4 13 -10 10 -5 -3
-10 -1 -10 5 0 6 -6 8 -12 5 -7 -4 5 9 27 29 49 44 130 85 198 102 47 11 31
12 -160 13 l-213 1 0 -480z m787 364 c-3 -3 -12 -4 -19 -1 -8 3 -5 6 6 6 11 1
17 -2 13 -5z m-77 -44 c0 -5 -5 -10 -11 -10 -5 0 -7 5 -4 10 3 6 8 10 11 10 2
0 4 -4 4 -10z m40 0 c0 -5 -4 -10 -9 -10 -6 0 -13 5 -16 10 -3 6 1 10 9 10 9
0 16 -4 16 -10z m97 -16 c-3 -3 -12 -4 -19 -1 -8 3 -5 6 6 6 11 1 17 -2 13 -5z
m-400 -26 c-3 -8 -6 -5 -6 6 -1 11 2 17 5 13 3 -3 4 -12 1 -19z m82 -55 c14
-9 21 -11 17 -5 -9 15 9 14 54 -3 19 -7 27 -14 18 -14 -22 -1 -24 -19 -3 -27
8 -4 12 -10 9 -15 -3 -5 2 -9 10 -9 8 0 18 -5 22 -11 4 -8 -1 -9 -17 -5 -16 4
-14 1 7 -8 33 -16 167 -11 142 5 -15 10 -2 11 30 3 24 -7 30 -20 10 -22 -7 0
-33 -4 -58 -9 l-45 -9 50 -26 c61 -32 98 -70 121 -123 21 -49 23 -76 6 -94 -8
-8 -11 -22 -9 -32 3 -10 0 -17 -7 -16 -6 1 -11 -13 -11 -35 -1 -27 -9 -46 -30
-70 -17 -17 -35 -38 -42 -45 -15 -17 -28 -16 -48 4 -14 14 -18 14 -26 2 -6
-10 -9 -11 -9 -1 0 7 7 15 15 18 20 8 19 24 -1 24 -8 0 -12 5 -9 10 4 7 13 7
26 0 11 -6 19 -7 19 -2 0 15 47 20 60 8 8 -8 11 -8 8 1 -2 6 6 19 17 28 11 9
13 13 5 9 -8 -4 -29 -7 -46 -6 -20 2 -34 -3 -37 -12 -5 -14 -46 -14 -68 0 -4
2 -9 0 -11 -5 -1 -5 -16 -10 -33 -12 -16 -2 -35 -7 -42 -12 -6 -4 -14 -4 -17
1 -3 5 14 19 37 32 54 30 77 50 77 67 0 8 -4 12 -9 8 -5 -3 -16 3 -23 13 -7
10 -22 24 -33 30 -20 11 -20 11 1 12 11 0 28 -6 39 -13 21 -16 53 -4 113 40
64 48 34 125 -67 169 -31 14 -70 32 -88 40 -46 21 -56 18 -51 -15 2 -17 1 -28
-4 -25 -4 3 -8 0 -8 -5 0 -6 -5 -11 -11 -11 -7 0 -9 10 -5 26 4 15 3 23 -3 20
-5 -3 -7 3 -4 14 3 11 1 20 -5 20 -6 0 -13 13 -17 30 -6 29 -25 52 -25 30 0
-6 -4 -9 -8 -6 -4 2 -6 -11 -4 -30 3 -21 0 -34 -7 -34 -6 0 -11 5 -11 12 0 9
-3 9 -12 0 -7 -7 -21 -12 -32 -12 -17 0 -18 2 -6 10 8 5 11 10 5 10 -5 1 0 5
13 11 16 6 23 16 21 31 -2 25 9 58 20 58 4 0 17 -8 30 -17z m-421 -63 c37 -25
52 -41 52 -57 0 -28 -51 -87 -90 -103 -33 -14 -39 -42 -15 -74 8 -11 15 -17
15 -13 0 4 8 -1 18 -11 17 -16 16 -17 -13 -24 -38 -9 -64 21 -65 73 0 33 5 40
51 70 28 17 58 43 66 56 15 22 14 25 -8 49 -13 14 -36 33 -51 42 -16 9 -28 20
-28 25 0 11 5 9 68 -33z m-58 -35 c10 -13 9 -15 -9 -15 -12 0 -21 6 -21 15 0
8 4 15 9 15 5 0 14 -7 21 -15z m487 -152 c-3 -10 -5 -2 -5 17 0 19 2 27 5 18
2 -10 2 -26 0 -35z m-161 -65 c8 -15 10 -28 5 -28 -5 0 -13 10 -17 23 -3 12
-14 31 -23 42 -15 19 -15 19 2 6 10 -8 25 -27 33 -43z m569 22 c3 -5 2 -10 -4
-10 -5 0 -13 5 -16 10 -3 6 -2 10 4 10 5 0 13 -4 16 -10z m-674 -90 c26 -14
24 -27 -6 -34 -14 -4 -25 -13 -25 -21 0 -13 -3 -13 -20 -3 -14 9 -18 19 -14
33 11 34 32 42 65 25z m189 -30 c0 -5 -4 -10 -9 -10 -6 0 -13 5 -16 10 -3 6 1
10 9 10 9 0 16 -4 16 -10z m-60 -20 c0 -11 -4 -20 -10 -20 -5 0 -10 2 -10 4 0
2 -3 11 -6 20 -4 11 -1 16 10 16 9 0 16 -8 16 -20z m251 -126 c12 -14 11 -16
-5 -13 -11 2 -21 10 -24 17 -5 17 13 15 29 -4z m-111 -110 c0 -2 -11 -3 -24
-2 -14 1 -23 5 -20 9 4 7 44 0 44 -7z m-27 -21 c-7 -2 -19 -2 -25 0 -7 3 -2 5
12 5 14 0 19 -2 13 -5z"/>
<path d="M590 640 c6 -11 13 -20 16 -20 2 0 0 9 -6 20 -6 11 -13 20 -16 20 -2
0 0 -9 6 -20z"/>
<path d="M840 260 c-8 -5 -12 -12 -9 -15 4 -3 12 1 19 10 14 17 11 19 -10 5z"/>
<path d="M755 162 c-8 -8 5 -22 21 -22 8 0 14 6 14 13 0 13 -25 19 -35 9z"/>
<path d="M261 804 c0 -11 3 -14 6 -6 3 7 2 16 -1 19 -3 4 -6 -2 -5 -13z"/>
<path d="M305 810 c-3 -6 1 -7 9 -4 18 7 21 14 7 14 -6 0 -13 -4 -16 -10z"/>
<path d="M477 794 c3 -9 9 -12 12 -7 3 4 10 11 15 16 5 4 0 7 -12 7 -15 0 -20
-4 -15 -16z"/>
</g>
</svg>
